<?xml version="1.0" encoding="utf-8"?>
<!-- Generator: Adobe Illustrator 19.1.0, SVG Export Plug-In . SVG Version: 6.00 Build 0)  -->
<svg version="1.1" id="logotype" xmlns="http://www.w3.org/2000/svg" xmlns:xlink="http://www.w3.org/1999/xlink" x="0px" y="0px"
	 viewBox="62 -2.3 151 33.3" style="enable-background:new 62 -2.3 151 33.3;" xml:space="preserve">
<style type="text/css">
	.st0{fill:#53437d;}
</style>
<g>
	<g>
		<path class="st0" d="M84.3-2.3H65.7c-2,0-3.7,1.6-3.7,3.7V20c0,2,1.6,3.7,3.7,3.7h18.7c2,0,3.7-1.6,3.7-3.7V1.4
			C88-0.7,86.4-2.3,84.3-2.3z M85.4,20c0,0.6-0.5,1-1,1H65.7c-0.6,0-1-0.5-1-1V1.4c0-0.6,0.5-1,1-1h18.7c0.6,0,1,0.5,1,1
			C85.4,1.4,85.4,20,85.4,20z"/>
		<polygon class="st0" points="75.1,3.5 75,3.5 67.8,3.5 67.8,10.3 67.8,10.8 67.8,17.7 75.1,17.7 75.1,10.8 82.3,10.8 82.3,3.5
			"/>
	</g>
	<g>
		<g>
			<g>
				<path class="st0" d="M157.2,10.2l6,13.1c0,0-0.5,3.5-4.5,1.4l-0.7,3.4c0,0,5.3,3,8.3-2.2l6.3-15.7h-4.3l-3,8.7l-3.2-8.7
					C162.1,10.2,157.2,10.2,157.2,10.2z"/>
			</g>
			<g>
				<path class="st0" d="M118.8,11.1V8.5h-4.3v13.6h4.3v-7.6c1-3.7,5.1-1.8,5.1-1.8c0.8-2.7,2.1-3.3,2.1-3.3
					C120.8,6,118.8,11.1,118.8,11.1z"/>
			</g>
			<g>
				<path class="st0" d="M213,12.2V8.7c-2.5-0.8-4-0.7-5-0.1c-0.9-0.4-2-0.7-3.1-0.7c-4.1,0-7.5,3.3-7.5,7.3s3.4,7.3,7.5,7.3
					c0.1,0,0.2,0,0.3,0l0,0c1.5,0,2.7,1,2.7,2.2s-1.2,2.2-2.7,2.2s-2.7-1-2.7-2.2c0-0.2,0-0.4,0.1-0.6h-4.4c0,0.2,0,0.4,0,0.6
					c0,3.5,3.2,6.3,7,6.3c3.9,0,7-2.8,7-6.3c0-1.7-0.8-3.2-2-4.4c1.3-1.3,2.1-3.1,2.1-5.1c0-1.2-0.3-2.4-0.9-3.4
					C212.2,11.7,213,12.2,213,12.2z M205.2,18.3c-0.2,0-0.4,0-0.7,0c-1.5-0.2-2.7-1.5-2.7-3c0-1.7,1.4-3.1,3.1-3.1
					c1.7,0,3.1,1.4,3.1,3.1c0,1.5-1.1,2.8-2.5,3C205.3,18.3,205.3,18.3,205.2,18.3z"/>
			</g>
			<g>
				<path class="st0" d="M180.3,18.7c-0.5,0.2-1.2,0.3-1.4-0.3v-10h2.7v-4h-2.7V0.5h-4.5v3.9h-17.2v4h17.3v10c0,0-0.7,6.6,6.6,4
					l1.6-0.6C181.7,21,180.9,19.7,180.3,18.7z"/>
			</g>
			<g>
				<path class="st0" d="M196.5,19c-0.4,0.1-0.8,0-1-0.4c0-0.1-0.1-0.2-0.1-0.2l0,0l0,0l0,0h0.1c0,0,0,0,0-0.1
					c0.4-0.9,0.7-2,0.7-3.1c0-4-3.3-7.3-7.3-7.3s-7.3,3.3-7.3,7.3s3.3,7.3,7.3,7.3c1.1,0,2.1-0.2,3-0.7c0.8,0.9,3.1,2.5,7,0.2
					C197.9,21.2,197,20.2,196.5,19z M188.7,18.4c-1.7,0-3.1-1.4-3.1-3.1s1.4-3.1,3.1-3.1s3.1,1.4,3.1,3.1S190.4,18.4,188.7,18.4z"/>
			</g>
			<g>
				<path class="st0" d="M129.6,16h5.8h0.2h4c0-0.3,0.1-0.7,0.1-1s0-0.5,0-0.8c-0.4-3.7-3.5-6.6-7.2-6.6c-4,0-7.3,3.3-7.3,7.4
					s3.3,7.4,7.3,7.4c2.3,0,4.3-1.1,5.7-2.8l-3.5-2c0,0-0.9,0.7-2,0.7c0,0-1.3,0-2.3-1C129.7,16.8,129.6,16,129.6,16z M130,13.7
					c0.4-1.3,1.4-2.3,2.6-2.3c1.2,0,2.2,0.9,2.6,2.3H130L130,13.7z"/>
			</g>
			<g>
				<path class="st0" d="M156.6,18.9c0,0-0.8,0.7-1.2-0.3V0.9H151v9.3c-1.1-1-2.4-1.5-3.9-1.5c-3.5,0-6.3,3.2-6.3,7s2.8,7,6.3,7
					c1.6,0,3.1-0.7,4.3-1.8c0.6,1.4,3,3.3,7.2,1.4L156.6,18.9z M151,18L151,18c-0.6,0.7-1.5,1.1-2.5,1.1c-1.4,0-2.6-0.8-3.1-2
					c-0.2-0.4-0.3-0.8-0.3-1.3c0-1.8,1.5-3.3,3.3-3.3c1,0,1.8,0.4,2.5,1.1l0,0l0,0c0.5,0.6,0.8,1.4,0.8,2.2
					C151.8,16.6,151.5,17.4,151,18z"/>
			</g>
			<g>
				<path class="st0" d="M103.9,10.1c0-3.6,2.9-6.5,6.5-6.5c1.4,0,2.7,0.4,3.7,1.2l3.4-4.7c-2-1.4-4.4-2.3-7.1-2.3
					c-6.7,0-12.1,5.4-12.1,12.1S103.7,22,110.4,22c0.9,0,1.7-0.1,2.5-0.3v-5.8c-0.8,0.3-1.7,0.5-2.6,0.5
					C106.8,16.6,103.9,13.7,103.9,10.1z"/>
			</g>
		</g>
	</g>
</g>
</svg>
