<svg xmlns="http://www.w3.org/2000/svg" xmlns:xlink="http://www.w3.org/1999/xlink" viewBox="0 0 477.58 296.88"><defs><style>.cls-1,.cls-14{fill:#70cacc;}.cls-1{opacity:0.25;}.cls-2{fill:#00b25d;}.cls-11,.cls-3{fill:#555;}.cls-4{fill:#82d1aa;}.cls-5{fill:#f29055;}.cls-6{fill:#f4b290;}.cls-7{fill:#fff;}.cls-8{fill:#d9d9d9;}.cls-9{fill:url(#linear-gradient);}.cls-10{fill:#00a5ea;}.cls-11{opacity:0.3;}.cls-12{fill:#fee7b1;}.cls-13{fill:#98ceea;}.cls-15{fill:#f1f1f2;}.cls-16{fill:#d0e9f4;}</style><linearGradient id="linear-gradient" x1="138.5" y1="170.21" x2="323.27" y2="170.21" gradientUnits="userSpaceOnUse"><stop offset="0.02" stop-color="#645095"/><stop offset="0.97" stop-color="#53437d"/></linearGradient></defs><title>undercons</title><g id="Layer_2" data-name="Layer 2"><g id="Formularios"><path class="cls-1" d="M123.9,293.91h195a163.2,163.2,0,1,0-195,0Z"/><line class="cls-2" x1="33.35" y1="220.94" x2="49.71" y2="237.01"/><rect class="cls-3" x="40.53" y="217.51" width="2" height="22.94" transform="translate(-150.91 98.12) rotate(-45.51)"/><path class="cls-2" d="M49.71,244a6.89,6.89,0,0,1-4.86-2L28.49,225.88A6.93,6.93,0,1,1,38.21,216l16.36,16.08A6.94,6.94,0,0,1,49.71,244Z"/><path class="cls-3" d="M49.71,245a7.88,7.88,0,0,1-5.56-2.28L27.79,226.6a7.93,7.93,0,0,1,11.12-11.32l16.36,16.07A7.94,7.94,0,0,1,49.71,245ZM33.35,215a5.93,5.93,0,0,0-4.16,10.16l16.36,16.08a5.93,5.93,0,0,0,4.16,1.7,5.94,5.94,0,0,0,4.16-10.17L37.5,216.7A5.9,5.9,0,0,0,33.35,215Z"/><path class="cls-2" d="M54.18,194.39h6.68a11.29,11.29,0,0,1,11.29,11.29v57.11a0,0,0,0,1,0,0H42.89a0,0,0,0,1,0,0V205.68A11.29,11.29,0,0,1,54.18,194.39Z"/><path class="cls-3" d="M74.16,264.79H40.89V205.68a13.3,13.3,0,0,1,13.29-13.29h6.68a13.31,13.31,0,0,1,13.3,13.29Zm-29.27-4H70.16V205.68a9.31,9.31,0,0,0-9.3-9.29H54.18a9.3,9.3,0,0,0-9.29,9.29Z"/><path class="cls-4" d="M64.67,262.79V209c0-8.08-3.2-14.63-7.15-14.63h0c-3.94,0-7.14,6.55-7.14,14.63v53.77"/><path class="cls-3" d="M65.67,262.79h-2V209c0-8.15-3.18-13.63-6.15-13.63s-6.14,5.48-6.14,13.63v53.77h-2V209c0-8.76,3.58-15.63,8.14-15.63s8.15,6.87,8.15,15.63Z"/><path class="cls-2" d="M57.4,262.79V209c0-8.08.06-14.63.12-14.63h0c.07,0,.12,6.55.12,14.63v53.77"/><path class="cls-3" d="M59.64,262.79H55.4V209c0-4,0-7.71,0-10.36,0-1.33,0-2.41,0-3.16,0-1.24.06-3.11,2-3.11s2,1.87,2,3.11c0,.75,0,1.83,0,3.16,0,2.65,0,6.32,0,10.36Z"/><path class="cls-2" d="M77.18,227.92h4.24a7.17,7.17,0,0,1,7.17,7.17v26.42a0,0,0,0,1,0,0H70a0,0,0,0,1,0,0V235.1A7.17,7.17,0,0,1,77.18,227.92Z"/><path class="cls-3" d="M90.6,263.52H68V235.1a9.18,9.18,0,0,1,9.17-9.18h4.24a9.19,9.19,0,0,1,9.18,9.18Zm-18.59-4H86.6V235.1a5.18,5.18,0,0,0-5.18-5.18H77.18A5.18,5.18,0,0,0,72,235.1Z"/><path class="cls-4" d="M82.9,261.52V235.11c0-4-1.61-7.19-3.6-7.19h0c-2,0-3.59,3.22-3.59,7.19v26.41"/><path class="cls-3" d="M83.9,261.52h-2V235.11c0-3.83-1.51-6.19-2.6-6.19s-2.59,2.36-2.59,6.19v26.41h-2V235.11c0-4.67,2-8.19,4.59-8.19s4.6,3.52,4.6,8.19Z"/><path class="cls-5" d="M25.88,256.45h83.24a0,0,0,0,1,0,0v8.35A28.24,28.24,0,0,1,80.87,293H54.12A28.24,28.24,0,0,1,25.88,264.8v-8.35a0,0,0,0,1,0,0Z"/><path class="cls-3" d="M80.87,294H54.12A29.26,29.26,0,0,1,24.88,264.8v-8.35a1,1,0,0,1,1-1h83.23a1,1,0,0,1,1,1v8.35A29.26,29.26,0,0,1,80.87,294Zm-54-36.59v7.35A27.27,27.27,0,0,0,54.12,292H80.87a27.27,27.27,0,0,0,27.24-27.24v-7.35Z"/><rect class="cls-6" x="23.11" y="256.4" width="88.88" height="17.26"/><path class="cls-3" d="M112,274.66H23.11a1,1,0,0,1-1-1V256.4a1,1,0,0,1,1-1H112a1,1,0,0,1,1,1v17.26A1,1,0,0,1,112,274.66Zm-87.88-2H111V257.4H24.11Z"/><rect class="cls-7" x="90.55" y="125.7" width="277.59" height="168.39"/><path class="cls-3" d="M368.14,295.59H90.55a1.5,1.5,0,0,1-1.5-1.5V125.7a1.5,1.5,0,0,1,1.5-1.5H368.14a1.5,1.5,0,0,1,1.5,1.5V294.09A1.5,1.5,0,0,1,368.14,295.59Zm-276.09-3H366.64V127.2H92.05Z"/><rect class="cls-8" x="75.26" y="283.59" width="308.16" height="10.5"/><path class="cls-3" d="M383.42,295.59H75.26a1.5,1.5,0,0,1-1.5-1.5v-10.5a1.5,1.5,0,0,1,1.5-1.5H383.42a1.5,1.5,0,0,1,1.5,1.5v10.5A1.5,1.5,0,0,1,383.42,295.59Zm-306.66-3H381.92v-7.5H76.76Z"/><rect class="cls-7" x="94.62" y="135.61" width="268.67" height="138.88"/><path class="cls-3" d="M363.29,275.48H94.62a1,1,0,0,1-1-1V135.61a1,1,0,0,1,1-1H363.29a1,1,0,0,1,1,1V274.48A1,1,0,0,1,363.29,275.48Zm-267.67-2H362.29V136.61H95.62Z"/><rect class="cls-7" x="135.53" y="151.3" width="189.8" height="122.89"/><path class="cls-3" d="M325.33,275.19H135.53a1,1,0,0,1-1-1V151.3a1,1,0,0,1,1-1h189.8a1,1,0,0,1,1,1V274.19A1,1,0,0,1,325.33,275.19Zm-188.8-2h187.8V152.3H136.53Z"/><line class="cls-7" x1="322.27" y1="170.21" x2="139.5" y2="170.21"/><path class="cls-9" d="M322.27,171.21H139.5a1,1,0,0,1,0-2H322.27a1,1,0,0,1,0,2Z"/><circle class="cls-10" cx="146.41" cy="160.31" r="2.67"/><path class="cls-3" d="M146.41,164a3.68,3.68,0,1,1,3.68-3.67A3.68,3.68,0,0,1,146.41,164Zm0-5.35a1.68,1.68,0,1,0,1.68,1.68A1.68,1.68,0,0,0,146.41,158.63Z"/><circle class="cls-10" cx="154.69" cy="160.31" r="2.67"/><path class="cls-3" d="M154.68,164a3.68,3.68,0,1,1,3.68-3.67A3.68,3.68,0,0,1,154.68,164Zm0-5.35a1.68,1.68,0,1,0,1.68,1.68A1.68,1.68,0,0,0,154.68,158.63Z"/><circle class="cls-10" cx="162.96" cy="160.31" r="2.67"/><path class="cls-3" d="M163,164a3.68,3.68,0,1,1,3.67-3.67A3.68,3.68,0,0,1,163,164Zm0-5.35a1.68,1.68,0,1,0,1.67,1.68A1.68,1.68,0,0,0,163,158.63Z"/><path class="cls-8" d="M157.64,196.51H303.46a2.75,2.75,0,0,1,2.75,2.75v54.51a0,0,0,0,1,0,0H154.89a0,0,0,0,1,0,0V199.26A2.75,2.75,0,0,1,157.64,196.51Z"/><path class="cls-3" d="M306.21,254.77H154.89a1,1,0,0,1-1-1V199.26a3.75,3.75,0,0,1,3.75-3.75H303.46a3.75,3.75,0,0,1,3.75,3.75v54.51A1,1,0,0,1,306.21,254.77Zm-150.32-2H305.21V199.26a1.75,1.75,0,0,0-1.75-1.75H157.64a1.75,1.75,0,0,0-1.75,1.75Z"/><path class="cls-11" d="M154.13,183.16H321.69a2.75,2.75,0,0,1,2.75,2.75v54.51a0,0,0,0,1,0,0H151.38a0,0,0,0,1,0,0V185.91A2.75,2.75,0,0,1,154.13,183.16Z"/><line class="cls-7" x1="154.89" y1="253.77" x2="306.21" y2="198.63"/><path class="cls-3" d="M154.89,254.77a1,1,0,0,1-.34-1.94l151.32-55.14a1,1,0,0,1,.69,1.88L155.23,254.71A1,1,0,0,1,154.89,254.77Z"/><line class="cls-7" x1="157.01" y1="196.51" x2="306.21" y2="253.77"/><path class="cls-3" d="M306.21,254.77a1.13,1.13,0,0,1-.36-.06l-149.2-57.26a1,1,0,0,1,.72-1.87l149.2,57.26a1,1,0,0,1-.36,1.93Z"/><path class="cls-3" d="M351.75,126H311.14a1.5,1.5,0,0,1-1.5-1.5V111.9a4.25,4.25,0,0,1,4.25-4.25H349a4.25,4.25,0,0,1,4.25,4.25v12.61A1.5,1.5,0,0,1,351.75,126Zm-39.11-3h37.61V111.9a1.25,1.25,0,0,0-1.25-1.25H313.89a1.25,1.25,0,0,0-1.25,1.25Z"/><path class="cls-3" d="M311.14,126a1.49,1.49,0,0,1-1.41-1,1.51,1.51,0,0,1,.9-1.93l40.61-14.79a1.5,1.5,0,1,1,1,2.81l-40.61,14.8A1.58,1.58,0,0,1,311.14,126Z"/><path class="cls-3" d="M351.75,126a1.42,1.42,0,0,1-.53-.1l-40.05-15.36a1.5,1.5,0,0,1,1.08-2.8l40,15.36a1.5,1.5,0,0,1,.86,1.94A1.48,1.48,0,0,1,351.75,126Z"/><path class="cls-3" d="M351.75,109.7H311.14a1.5,1.5,0,0,1-1.5-1.5V95.58a4.26,4.26,0,0,1,4.25-4.25H349a4.25,4.25,0,0,1,4.25,4.25V108.2A1.5,1.5,0,0,1,351.75,109.7Zm-39.11-3h37.61V95.58A1.25,1.25,0,0,0,349,94.33H313.89a1.25,1.25,0,0,0-1.25,1.25Z"/><path class="cls-3" d="M311.14,109.7a1.5,1.5,0,0,1-.51-2.91L351.24,92a1.5,1.5,0,0,1,1,2.82l-40.61,14.8A1.58,1.58,0,0,1,311.14,109.7Z"/><path class="cls-3" d="M351.75,109.7a1.42,1.42,0,0,1-.53-.1L311.17,94.23a1.49,1.49,0,0,1-.86-1.93,1.51,1.51,0,0,1,1.94-.87l40,15.37a1.5,1.5,0,0,1-.54,2.9Z"/><path class="cls-3" d="M351.75,93.39H311.14a1.5,1.5,0,0,1-1.5-1.5V79.27A4.26,4.26,0,0,1,313.89,75H349a4.25,4.25,0,0,1,4.25,4.25V91.89A1.5,1.5,0,0,1,351.75,93.39Zm-39.11-3h37.61V79.27A1.25,1.25,0,0,0,349,78H313.89a1.25,1.25,0,0,0-1.25,1.25Z"/><path class="cls-3" d="M311.14,93.39a1.5,1.5,0,0,1-.51-2.91l40.61-14.8a1.5,1.5,0,0,1,1,2.82L311.66,93.3A1.58,1.58,0,0,1,311.14,93.39Z"/><path class="cls-3" d="M351.75,93.39a1.42,1.42,0,0,1-.53-.1L311.17,77.92a1.5,1.5,0,0,1,1.08-2.8l40,15.37a1.5,1.5,0,0,1-.54,2.9Z"/><path class="cls-3" d="M351.75,77.07H311.14a1.5,1.5,0,0,1-1.5-1.5V63a4.25,4.25,0,0,1,4.25-4.25H349A4.25,4.25,0,0,1,353.25,63V75.57A1.5,1.5,0,0,1,351.75,77.07Zm-39.11-3h37.61V63A1.25,1.25,0,0,0,349,61.71H313.89A1.25,1.25,0,0,0,312.64,63Z"/><path class="cls-3" d="M311.14,77.07a1.49,1.49,0,0,1-1.41-1,1.51,1.51,0,0,1,.9-1.93l40.61-14.79a1.5,1.5,0,1,1,1,2.81L311.66,77A1.36,1.36,0,0,1,311.14,77.07Z"/><path class="cls-3" d="M351.75,77.07a1.42,1.42,0,0,1-.53-.1L311.17,61.61a1.5,1.5,0,1,1,1.08-2.8l40,15.36a1.5,1.5,0,0,1,.86,1.94A1.48,1.48,0,0,1,351.75,77.07Z"/><path class="cls-3" d="M351.75,60.76H311.14a1.5,1.5,0,0,1-1.5-1.5V46.64a4.26,4.26,0,0,1,4.25-4.25H349a4.25,4.25,0,0,1,4.25,4.25V59.26A1.5,1.5,0,0,1,351.75,60.76Zm-39.11-3h37.61V46.64A1.25,1.25,0,0,0,349,45.39H313.89a1.25,1.25,0,0,0-1.25,1.25Z"/><path class="cls-3" d="M311.14,60.76a1.5,1.5,0,0,1-.51-2.91l40.61-14.8a1.5,1.5,0,0,1,1,2.82l-40.61,14.8A1.58,1.58,0,0,1,311.14,60.76Z"/><path class="cls-3" d="M351.75,60.76a1.42,1.42,0,0,1-.53-.1L311.17,45.29a1.49,1.49,0,0,1-.86-1.93,1.51,1.51,0,0,1,1.94-.87l40,15.37a1.5,1.5,0,0,1,.86,1.94A1.48,1.48,0,0,1,351.75,60.76Z"/><path class="cls-3" d="M405.59,86.1H382.43a1.5,1.5,0,0,1-1.5-1.5V72a4.25,4.25,0,0,1,4.25-4.25h17.66A4.26,4.26,0,0,1,407.09,72V84.6A1.5,1.5,0,0,1,405.59,86.1Zm-21.66-3h20.16V72a1.26,1.26,0,0,0-1.25-1.25H385.18A1.26,1.26,0,0,0,383.93,72Z"/><path class="cls-3" d="M382.43,86.1a1.5,1.5,0,0,1-.81-2.76l23.16-14.8a1.5,1.5,0,0,1,1.62,2.53l-23.17,14.8A1.48,1.48,0,0,1,382.43,86.1Z"/><path class="cls-3" d="M405.59,86.1a1.52,1.52,0,0,1-.84-.25L381.91,70.48A1.5,1.5,0,0,1,383.59,68l22.84,15.37a1.5,1.5,0,0,1-.84,2.74Z"/><path class="cls-3" d="M382.23,86.1H359.07a1.5,1.5,0,0,1-1.5-1.5V72a4.25,4.25,0,0,1,4.25-4.25h17.66A4.26,4.26,0,0,1,383.73,72V84.6A1.5,1.5,0,0,1,382.23,86.1Zm-21.66-3h20.16V72a1.26,1.26,0,0,0-1.25-1.25H361.82A1.26,1.26,0,0,0,360.57,72Z"/><path class="cls-3" d="M359.07,86.1a1.5,1.5,0,0,1-.81-2.76l23.16-14.8A1.5,1.5,0,0,1,383,71.07l-23.17,14.8A1.48,1.48,0,0,1,359.07,86.1Z"/><path class="cls-3" d="M382.23,86.1a1.52,1.52,0,0,1-.84-.25L358.55,70.48A1.5,1.5,0,0,1,360.23,68l22.84,15.37a1.5,1.5,0,0,1-.84,2.74Z"/><path class="cls-3" d="M302.25,86.1H279.08a1.5,1.5,0,0,1-1.5-1.5V72a4.26,4.26,0,0,1,4.25-4.25H299.5A4.26,4.26,0,0,1,303.75,72V84.6A1.5,1.5,0,0,1,302.25,86.1Zm-21.67-3h20.17V72a1.26,1.26,0,0,0-1.25-1.25H281.83A1.26,1.26,0,0,0,280.58,72Z"/><path class="cls-3" d="M279.09,86.1a1.5,1.5,0,0,1-.81-2.76l23.16-14.8a1.5,1.5,0,1,1,1.61,2.53l-23.16,14.8A1.48,1.48,0,0,1,279.09,86.1Z"/><path class="cls-3" d="M302.25,86.1a1.52,1.52,0,0,1-.84-.25L278.57,70.48A1.5,1.5,0,0,1,280.25,68l22.83,15.37a1.5,1.5,0,0,1-.83,2.74Z"/><path class="cls-3" d="M278.88,86.1H255.72a1.5,1.5,0,0,1-1.5-1.5V72a4.26,4.26,0,0,1,4.25-4.25h17.66A4.25,4.25,0,0,1,280.38,72V84.6A1.5,1.5,0,0,1,278.88,86.1Zm-21.66-3h20.16V72a1.26,1.26,0,0,0-1.25-1.25H258.47A1.26,1.26,0,0,0,257.22,72Z"/><path class="cls-3" d="M255.72,86.1a1.5,1.5,0,0,1-.8-2.76l23.16-14.8a1.5,1.5,0,1,1,1.61,2.53l-23.16,14.8A1.49,1.49,0,0,1,255.72,86.1Z"/><path class="cls-3" d="M278.88,86.1a1.49,1.49,0,0,1-.83-.25L255.21,70.48A1.5,1.5,0,1,1,256.89,68l22.83,15.37a1.5,1.5,0,0,1-.84,2.74Z"/><path class="cls-3" d="M256.32,86.1H233.15a1.5,1.5,0,0,1-1.5-1.5V72a4.26,4.26,0,0,1,4.25-4.25h17.67A4.26,4.26,0,0,1,257.82,72V84.6A1.5,1.5,0,0,1,256.32,86.1Zm-21.67-3h20.17V72a1.26,1.26,0,0,0-1.25-1.25H235.9A1.26,1.26,0,0,0,234.65,72Z"/><path class="cls-3" d="M233.16,86.1a1.5,1.5,0,0,1-.81-2.76l23.16-14.8a1.5,1.5,0,1,1,1.61,2.53L234,85.87A1.48,1.48,0,0,1,233.16,86.1Z"/><path class="cls-3" d="M256.32,86.1a1.52,1.52,0,0,1-.84-.25L232.64,70.48A1.5,1.5,0,1,1,234.32,68l22.83,15.37a1.5,1.5,0,0,1-.83,2.74Z"/><path class="cls-3" d="M233,86.1H209.79a1.5,1.5,0,0,1-1.5-1.5V72a4.26,4.26,0,0,1,4.25-4.25h17.67A4.26,4.26,0,0,1,234.46,72V84.6A1.5,1.5,0,0,1,233,86.1Zm-21.67-3h20.17V72a1.26,1.26,0,0,0-1.25-1.25H212.54A1.26,1.26,0,0,0,211.29,72Z"/><path class="cls-3" d="M209.79,86.1a1.5,1.5,0,0,1-.8-2.76l23.16-14.8a1.5,1.5,0,1,1,1.61,2.53L210.6,85.87A1.49,1.49,0,0,1,209.79,86.1Z"/><path class="cls-3" d="M233,124.58a1.5,1.5,0,0,1-1.5-1.5V85.4L209.28,70.48a1.52,1.52,0,0,1-.65-1.44,1.49,1.49,0,0,1,1-1.22l121-41.77a1.5,1.5,0,0,1,1.24.12l72.32,41.77a1.5,1.5,0,1,1-1.5,2.59L331,29.11,213.45,69.67l20.34,13.69a1.49,1.49,0,0,1,.67,1.24v38.48A1.5,1.5,0,0,1,233,124.58Z"/><polygon class="cls-7" points="425.76 218.15 473.42 218.15 467.82 293.83 431.36 293.83 425.76 218.15"/><path class="cls-3" d="M467.82,295.33H431.36a1.51,1.51,0,0,1-1.5-1.39l-5.59-75.68a1.49,1.49,0,0,1,1.49-1.61h47.66a1.48,1.48,0,0,1,1.1.48,1.5,1.5,0,0,1,.4,1.13l-5.6,75.68A1.51,1.51,0,0,1,467.82,295.33Zm-35.07-3h33.68l5.38-72.68H427.38Z"/><polygon class="cls-12" points="471.19 271.81 473.84 236.04 425.35 236.04 427.99 271.81 471.19 271.81"/><path class="cls-3" d="M471.19,272.81H428a1,1,0,0,1-1-.92l-2.64-35.78a1,1,0,0,1,1-1.07h48.5a1,1,0,0,1,.73.31,1,1,0,0,1,.26.76l-2.64,35.78A1,1,0,0,1,471.19,272.81Zm-42.27-2h41.34l2.5-33.77H426.42Z"/><polygon class="cls-3" points="476.08 218.15 423.1 218.15 423.1 209.89 476.08 207.65 476.08 218.15"/><path class="cls-3" d="M476.08,219.65h-53a1.5,1.5,0,0,1-1.5-1.5v-8.26a1.51,1.51,0,0,1,1.44-1.5l53-2.24a1.56,1.56,0,0,1,1.1.42,1.51,1.51,0,0,1,.46,1.08v10.5A1.5,1.5,0,0,1,476.08,219.65Zm-51.48-3h50v-7.43l-50,2.11Z"/><path class="cls-3" d="M351.92,44.61H311.14a1.51,1.51,0,0,1-1.42-1,1.49,1.49,0,0,1,.5-1.67l20-15.64a1.49,1.49,0,0,1,1.82,0l20.78,15.64a1.5,1.5,0,0,1-.91,2.7Zm-36.42-3h31.94L331.17,29.36Z"/><rect class="cls-8" x="302.25" y="60.76" width="56.54" height="36.7"/><path class="cls-3" d="M358.78,99H302.25a1.5,1.5,0,0,1-1.5-1.5V60.76a1.5,1.5,0,0,1,1.5-1.5h56.53a1.5,1.5,0,0,1,1.5,1.5v36.7A1.5,1.5,0,0,1,358.78,99Zm-55-3h53.53V62.26H303.75Z"/><rect class="cls-13" x="304.01" y="62.8" width="53.01" height="26.45"/><path class="cls-3" d="M358,90.25H303V61.8h55Zm-53-2h51V63.8H305Z"/><path class="cls-5" d="M225.9,125.5l-2.84-5h19.79l-2.84,5A8.11,8.11,0,0,1,225.9,125.5Z"/><path class="cls-3" d="M233,131.11a9.51,9.51,0,0,1-8.37-4.87h0l-2.84-5a1.51,1.51,0,0,1,0-1.5,1.5,1.5,0,0,1,1.3-.74h19.79a1.5,1.5,0,0,1,1.3.74,1.51,1.51,0,0,1,0,1.5l-2.84,5A9.51,9.51,0,0,1,233,131.11Zm-7.33-9.1,1.57,2.75h0a6.62,6.62,0,0,0,11.51,0l1.57-2.75Z"/><path class="cls-3" d="M233.35,148.93a8.64,8.64,0,0,1-8.63-8.63,1.5,1.5,0,0,1,3,0,5.63,5.63,0,1,0,5.63-5.62,1.5,1.5,0,0,1-1.5-1.5v-6.47a1.5,1.5,0,0,1,3,0v5.1a8.63,8.63,0,0,1-1.5,17.12Z"/><path class="cls-14" d="M152.26,168.5h163a2.75,2.75,0,0,1,2.75,2.75v61a0,0,0,0,1,0,0H149.51a0,0,0,0,1,0,0v-61A2.75,2.75,0,0,1,152.26,168.5Z" transform="translate(-1.91 2.25) rotate(-0.55)"/><path class="cls-3" d="M149.82,234.58a1.5,1.5,0,0,1-1.5-1.48l-.59-61a4.25,4.25,0,0,1,4.21-4.29l163-1.57h0a4.25,4.25,0,0,1,4.25,4.21l.59,61a1.53,1.53,0,0,1-.43,1.07,1.55,1.55,0,0,1-1.06.45l-168.53,1.61ZM315,169.22h0l-163,1.57a1.22,1.22,0,0,0-.88.37,1.27,1.27,0,0,0-.36.89l.57,59.52L316.83,230l-.57-59.52a1.25,1.25,0,0,0-1.25-1.24Z"/><rect class="cls-3" x="295.11" y="164.07" width="8.75" height="8.75" transform="translate(-1.6 2.88) rotate(-0.55)"/><path class="cls-3" d="M295.16,174.36a1.49,1.49,0,0,1-1.5-1.49l-.09-8.74a1.53,1.53,0,0,1,.43-1.07,1.55,1.55,0,0,1,1.06-.45l8.74-.08a1.49,1.49,0,0,1,1.52,1.49l.08,8.74a1.5,1.5,0,0,1-1.48,1.51l-8.75.09Zm1.43-8.76.05,5.74,5.75-.05-.06-5.75Z"/><rect class="cls-3" x="159.57" y="165.37" width="8.75" height="8.75" transform="translate(-1.62 1.58) rotate(-0.55)"/><path class="cls-3" d="M159.61,175.66a1.51,1.51,0,0,1-1.5-1.49l-.08-8.74a1.49,1.49,0,0,1,.43-1.07,1.55,1.55,0,0,1,1-.45l8.75-.08h0a1.49,1.49,0,0,1,1.5,1.48l.09,8.75a1.49,1.49,0,0,1-.43,1.06,1.47,1.47,0,0,1-1.06.45l-8.74.09ZM161,166.9l.06,5.74,5.74,0-.05-5.75Z"/><path class="cls-3" d="M163.94,171.24a1.5,1.5,0,0,1-.46-2.92l69-22.31a1.45,1.45,0,0,1,.92,0l66.54,21a1.51,1.51,0,0,1,1,1.89,1.49,1.49,0,0,1-1.88,1L233,149,164.4,171.17A1.47,1.47,0,0,1,163.94,171.24Z"/><path class="cls-15" d="M183,189.36a1,1,0,0,1,1,1l.11,17.89a1,1,0,0,1-1,1l-17.88.1a1,1,0,0,1-1-1l-.1-17.88a1,1,0,0,1,1-1l17.88-.1m0-2.52-17.88.11a3.51,3.51,0,0,0-3.5,3.53l.1,17.89a3.53,3.53,0,0,0,3.54,3.5l17.88-.11a3.51,3.51,0,0,0,3.5-3.54l-.1-17.88a3.53,3.53,0,0,0-3.54-3.5Z"/><rect class="cls-15" x="167.21" y="192.47" width="7.04" height="7.04" transform="translate(-1.13 0.99) rotate(-0.33)"/><rect class="cls-15" x="167.25" y="199" width="7.04" height="7.04" transform="translate(-1.17 0.99) rotate(-0.33)"/><rect class="cls-15" x="174.12" y="192.43" width="7.04" height="7.04" transform="translate(-1.13 1.03) rotate(-0.33)"/><path class="cls-15" d="M251.4,198.19l5.9,12.72s-.5,3.45-4.38,1.37l-.68,3.29s5.13,2.87,8-2.19l6.07-15.28-4.22,0-2.9,8.48-3.16-8.45Z"/><path class="cls-15" d="M214.15,199.25l0-2.53-4.15,0,.08,13.23,4.15,0-.05-7.37c.94-3.65,5-1.79,5-1.79.77-2.59,2.06-3.27,2.06-3.27C216,194.36,214.15,199.25,214.15,199.25Z"/><path class="cls-15" d="M305.67,199.81l0-3.36c-2.4-.78-3.92-.64-4.86-.12a7.63,7.63,0,0,0-3-.62,7.07,7.07,0,1,0,.09,14.13h.3a2.21,2.21,0,1,1,0,4.33,2.44,2.44,0,0,1-2.67-2.15,1.88,1.88,0,0,1,.09-.57l-4.27,0c0,.18,0,.36,0,.54,0,3.38,3.09,6.11,6.87,6.09s6.82-2.79,6.8-6.17a5.8,5.8,0,0,0-1.94-4.25,7,7,0,0,0,2-5,6.85,6.85,0,0,0-.87-3.3A3.49,3.49,0,0,1,305.67,199.81Zm-7.56,6c-.22,0-.43,0-.64,0a3,3,0,1,1,.85,0Z"/><path class="cls-15" d="M274,206.3c-.48.19-1.12.31-1.35-.29l-.06-9.69h2.61l0-3.93h-2.61l0-3.74-4.33,0,0,3.75-16.83.09,0,3.94,16.83-.1.06,9.69s-.61,6.42,6.48,3.81l1.52-.62A8.87,8.87,0,0,1,274,206.3Z"/><path class="cls-15" d="M289.65,206.57c-.4.08-.8,0-1-.41l-.08-.21h0v0h.08a.79.79,0,0,0-.05-.1,7.07,7.07,0,0,0-6.44-10,7.07,7.07,0,0,0,.08,14.13,7.15,7.15,0,0,0,2.93-.66c.76.89,3,2.38,6.78.13A8.51,8.51,0,0,1,289.65,206.57Zm-7.54-.59a3,3,0,1,1,3-3A3,3,0,0,1,282.11,206Z"/><path class="cls-15" d="M224.66,204l5.59,0h.23l3.91,0a7.77,7.77,0,0,0,.06-1,6.49,6.49,0,0,0,0-.77,7.07,7.07,0,1,0-7,8,7,7,0,0,0,5.5-2.74l-3.39-1.93a3.39,3.39,0,0,1-1.95.72,3.11,3.11,0,0,1-2.23-1A2.84,2.84,0,0,1,224.66,204Zm.39-2.25a2.8,2.8,0,0,1,2.53-2.21,2.74,2.74,0,0,1,2.49,2.18l-5,0Z"/><path class="cls-15" d="M251,206.69a.7.7,0,0,1-1.2-.31l-.1-17.19-4.33,0,.06,9.06a5.71,5.71,0,0,0-3.82-1.45c-3.38,0-6.11,3.09-6.09,6.87s2.79,6.82,6.17,6.8a5.76,5.76,0,0,0,4.13-1.81c.59,1.38,3,3.18,7,1.35Zm-5.53-.93v0a3.21,3.21,0,0,1-5.36-.88,3.12,3.12,0,0,1-.26-1.26,3.21,3.21,0,0,1,3.19-3.23,3.16,3.16,0,0,1,2.39,1h0a3.26,3.26,0,0,1,.83,2.14A3.2,3.2,0,0,1,245.42,205.76Z"/><path class="cls-15" d="M199.68,198.43a6.28,6.28,0,0,1,9.86-5.2l3.3-4.61A11.78,11.78,0,1,0,206.09,210a12.14,12.14,0,0,0,2.43-.27l0-5.6a6.07,6.07,0,0,1-2.49.53A6.28,6.28,0,0,1,199.68,198.43Z"/><line class="cls-7" x1="25.45" y1="294.38" x2="11.6" y2="294.38"/><path class="cls-3" d="M25.45,296.88H11.6a2.5,2.5,0,0,1,0-5H25.45a2.5,2.5,0,0,1,0,5Z"/><line class="cls-7" x1="4.96" y1="294.38" x2="2.5" y2="294.38"/><path class="cls-3" d="M5,296.88H2.5a2.5,2.5,0,0,1,0-5H5a2.5,2.5,0,0,1,0,5Z"/><line class="cls-7" x1="473.67" y1="294.38" x2="428.23" y2="294.38"/><path class="cls-3" d="M473.67,296.88H428.23a2.5,2.5,0,0,1,0-5h45.44a2.5,2.5,0,0,1,0,5Z"/><line class="cls-7" x1="403.28" y1="294.38" x2="399.05" y2="294.38"/><path class="cls-3" d="M403.28,296.88h-4.23a2.5,2.5,0,0,1,0-5h4.23a2.5,2.5,0,0,1,0,5Z"/><line class="cls-7" x1="391.72" y1="294.38" x2="34.65" y2="294.38"/><path class="cls-3" d="M391.72,296.88H34.65a2.5,2.5,0,1,1,0-5H391.72a2.5,2.5,0,0,1,0,5Z"/><polygon class="cls-16" points="352.63 87.41 344.46 87.41 324.98 64.45 333.15 64.45 352.63 87.41"/><polygon class="cls-16" points="341.65 87.41 340.21 87.41 320.73 64.45 322.18 64.45 341.65 87.41"/></g></g></svg>