<svg xmlns="http://www.w3.org/2000/svg" width="200" height="180" viewBox="0 0 200 180">
    <g fill="none" fill-rule="evenodd" opacity=".52">
        <path fill="#DADBDC" fill-rule="nonzero" d="M47.87 161.011H154.65c30.883-23.011 43.546-63.22 31.424-99.776S139.773.003 101.261.003c-38.513 0-72.693 24.676-84.815 61.232C4.324 97.79 16.988 138 47.87 161.01z"/>
        <path fill="#F7F7F7" fill-rule="nonzero" d="M38.39 95.502h134.59v65.027H38.39z"/>
        <path fill="#555" fill-rule="nonzero" d="M174.046 161.586H37.333V94.444h136.713v67.142zm-134.59-2.115H171.93v-62.92H39.456v62.92z"/>
        <path fill="#DEDDDD" fill-rule="nonzero" d="M43.464 109.471h27.103v51.065H43.464z"/>
        <path fill="#555" fill-rule="nonzero" d="M71.096 161.057H42.912V108.95h28.184v52.107zM43.992 160h26.054v-50H43.992v50z"/>
        <path fill="#DADBDC" fill-rule="nonzero" d="M117.602 109.471h45.708v37.51h-45.708z"/>
        <path fill="#555" fill-rule="nonzero" d="M163.877 147.548h-46.843v-38.651h46.843v38.65zm-45.708-1.134h44.574v-36.376H118.17v36.376z"/>
        <path fill="#E7E8E3" fill-rule="nonzero" d="M118.146 120.146l44.559 9.7v-6l-44.56-9.96zM118.146 121.862l44.559 10.552v2.582l-44.56-10.82zM42.72 91.862a11.617 11.617 0 1 0 23.226 0l9.916-33.502H59.693L42.72 91.862z"/>
        <path fill="#E7E8E3" fill-rule="nonzero" d="M64.16 91.563v.146a9.816 9.816 0 0 1-9.83 9.831 9.962 9.962 0 0 1-9.832-9.532L60.881 60h12.736L64.16 91.563z"/>
        <path fill="#DADBDC" fill-rule="nonzero" d="M19.487 91.862a11.617 11.617 0 1 0 23.226 0l16.98-33.502H43.54L19.487 91.862z"/>
        <path fill="#555" fill-rule="nonzero" d="M31.103 104.046c-6.725-.008-12.175-5.458-12.183-12.184v-.153l24.29-33.916h17.28L43.287 91.954c-.058 6.69-5.494 12.084-12.184 12.092zm-11.05-12.03c.194 5.99 5.128 10.733 11.121 10.692 5.993-.042 10.86-4.854 10.972-10.846v-.184l16.75-32.75H43.863L20.054 92.014z"/>
        <path fill="#E7E8E3" fill-rule="nonzero" d="M124.314 58.238l12.583 33.655c.161 6.297 5.313 11.318 11.613 11.318s11.45-5.02 11.613-11.318L140.467 58.36h-16.153v-.122z"/>
        <path fill="#E7E8E3" fill-rule="nonzero" d="M148.513 101.54a9.816 9.816 0 0 1-9.816-9.824v-.145L126.437 60h12.728l19.057 32.015a9.724 9.724 0 0 1-9.709 9.525z"/>
        <path fill="#DADBDC" fill-rule="nonzero" d="M140.467 58.238l19.686 33.478c.162 6.298 5.314 11.319 11.613 11.319 6.3 0 11.452-5.021 11.613-11.319l-26.75-33.478h-16.162z"/>
        <path fill="#04080A" fill-rule="nonzero" d="M54.33 103.448c6.412-.008 11.608-5.204 11.616-11.617H42.72c.009 6.41 5.2 11.605 11.61 11.617zM31.103 103.448c6.413-.008 11.609-5.204 11.617-11.617H19.487c.008 6.413 5.204 11.609 11.616 11.617zM148.513 103.448c6.41.005 11.615-5.177 11.64-11.586h-23.256c.025 6.4 5.216 11.578 11.616 11.586zM171.74 103.448c6.412-.008 11.608-5.204 11.616-11.617h-23.203c.009 6.4 5.186 11.592 11.586 11.617z" opacity=".1"/>
        <path fill="#555" fill-rule="nonzero" d="M54.33 104.536c-6.997-.008-12.666-5.678-12.675-12.674v-.176l.061-.169 17.227-34.214h18.1l-10.04 34.651c-.058 6.96-5.713 12.574-12.673 12.582zM43.778 92.038a10.56 10.56 0 0 0 21.11-.176v-.123l9.771-32.321H60.444l-16.666 32.62z"/>
        <path fill="#DADBDC" fill-rule="nonzero" d="M67.004 91.862a11.617 11.617 0 1 0 23.226 0l1.188-33.502h-14.79l-9.624 33.502z"/>
        <path fill="#DADBDC" fill-rule="nonzero" d="M88.452 91.563v.146a9.816 9.816 0 0 1-9.831 9.831 9.962 9.962 0 0 1-9.832-9.532L77.801 60h11.394l-.743 31.563z"/>
        <path fill="#04080A" fill-rule="nonzero" d="M78.62 103.448c6.413-.008 11.61-5.204 11.618-11.617H67.004c.008 6.413 5.204 11.609 11.617 11.617z" opacity=".1"/>
        <path fill="#555" fill-rule="nonzero" d="M78.62 104.536c-6.996-.008-12.665-5.678-12.674-12.674v-.176l.062-.169 9.854-34.214h16.759l-1.326 34.651c-.059 6.96-5.714 12.574-12.674 12.582zM68.07 92.038a10.56 10.56 0 0 0 21.111-.176v-.123l1.058-32.321H77.395l-9.326 32.62zM31.103 104.536c-6.996-.008-12.665-5.678-12.674-12.674v-.283l.146-.246 24.337-34.03H61.18L43.778 92.046c-.109 6.924-5.75 12.483-12.675 12.49zM20.552 92.138a10.56 10.56 0 0 0 21.11-.276v-.176l.062-.169 16.514-32.1H44.146l-23.594 32.72zM148.513 104.536c-6.96-.008-12.615-5.622-12.674-12.582l-12.467-32.536h-.13v-1.18l1.057-.062v-.873h16.927l19.923 34.383v.176c-.008 6.981-5.654 12.645-12.636 12.674zm-22.988-45.118L137.93 91.8v.061a10.56 10.56 0 0 0 21.111.176l-19.326-32.62h-14.191z"/>
        <path fill="#DADBDC" fill-rule="nonzero" d="M108.889 58.238l4.521 33.624c.162 6.298 5.313 11.319 11.613 11.319s11.451-5.021 11.613-11.319l-12.26-33.502h-15.487v-.122z"/>
        <path fill="#DADBDC" fill-rule="nonzero" d="M125.05 101.54a9.816 9.816 0 0 1-9.832-9.831v-.146l-4.245-31.57h12.061l11.686 32.015a9.724 9.724 0 0 1-9.67 9.532z"/>
        <path fill="#04080A" fill-rule="nonzero" d="M125.05 103.448c6.412-.008 11.608-5.204 11.617-11.617H113.41c.008 6.422 5.219 11.622 11.64 11.617z" opacity=".1"/>
        <path fill="#555" fill-rule="nonzero" d="M125.05 104.536c-6.96-.008-12.616-5.622-12.675-12.582l-4.406-32.506h-.13v-1.21l1.058-.062v-.873h16.237l12.59 34.383v.176c-.008 6.996-5.678 12.666-12.674 12.674zm-14.958-45.118L114.49 91.8v.061a10.56 10.56 0 0 0 21.112.176l-11.977-32.62h-13.533z"/>
        <path fill="#E7E8E3" fill-rule="nonzero" d="M91.648 58.238L90.16 91.893c.162 6.297 5.313 11.318 11.613 11.318s11.451-5.02 11.613-11.318l-4.245-33.502H91.648v-.153z"/>
        <path fill="#E7E8E3" fill-rule="nonzero" d="M101.77 101.54a9.816 9.816 0 0 1-9.816-9.824v-.145L93.739 60h14.07l3.647 32.015a9.724 9.724 0 0 1-9.686 9.525z"/>
        <path fill="#04080A" fill-rule="nonzero" d="M101.77 103.448c6.41.005 11.615-5.177 11.64-11.586H90.16c.026 6.397 5.213 11.574 11.61 11.586z" opacity=".1"/>
        <path fill="#555" fill-rule="nonzero" d="M101.77 104.536c-6.96-.008-12.615-5.622-12.674-12.582l1.624-32.506h-.13v-1.21l1.058-.062v-.873H109.9l4.552 34.383v.176c-.008 7-5.683 12.67-12.682 12.674zm-8.92-45.118L91.189 91.8v.061a10.56 10.56 0 0 0 21.11.176l-3.938-32.62H92.85zM171.74 104.383c-6.926-.007-12.566-5.566-12.675-12.49l-20.084-34.744h18.253l27.172 34.276v.284c-.008 6.993-5.673 12.661-12.667 12.674zm-29.786-45.111L161.18 91.54v.176a10.56 10.56 0 0 0 21.111.276l-26.276-32.72h-14.061z"/>
        <path fill="#04080A" fill-rule="nonzero" d="M58.651 58.207l108.315 11.617-9.794-11.617z" opacity=".1"/>
        <path fill="#555" fill-rule="nonzero" d="M144.651 6.644a.85.85 0 0 1-.85-.85V1.532a.85.85 0 1 1 1.693 0V5.8a.85.85 0 0 1-.843.843zM148.222 7.893a.85.85 0 0 1-.597-1.449l2.996-2.996a.85.85 0 1 1 1.195 1.196l-2.988 3.019a.843.843 0 0 1-.606.23zM154.176 11.303h-4.237a.85.85 0 1 1 0-1.694h4.237a.85.85 0 1 1 0 1.694zM151.67 17.923a.843.843 0 0 1-.597-.245l-2.996-2.996a.85.85 0 0 1 1.195-1.195l2.996 2.996a.85.85 0 0 1-.598 1.448v-.008zM145.287 20.835a.85.85 0 0 1-.85-.85v-4.23a.85.85 0 0 1 1.693 0v4.237a.85.85 0 0 1-.843.843zM138.644 18.39a.85.85 0 0 1-.598-1.447l2.996-2.997a.85.85 0 0 1 1.196 1.196l-2.997 2.996a.843.843 0 0 1-.597.253zM139.992 11.939h-4.237a.85.85 0 1 1 0-1.694h4.237a.85.85 0 1 1 0 1.694zM141.188 8.345a.843.843 0 0 1-.598-.245l-2.996-2.997a.85.85 0 0 1 1.195-1.195l2.973 2.989a.85.85 0 0 1-.597 1.448h.023zM10.881 123.44a.85.85 0 0 1-.597-1.448l2.996-2.996a.85.85 0 0 1 1.195 1.196l-2.98 3.003a.843.843 0 0 1-.614.246zM14.322 133.479a.843.843 0 0 1-.598-.245l-2.996-2.966a.85.85 0 0 1 1.195-1.195l2.997 2.996a.85.85 0 0 1-.598 1.448v-.038zM1.295 133.923a.85.85 0 0 1-.598-1.448l2.996-2.973a.85.85 0 0 1 1.196 1.195l-2.996 2.996a.843.843 0 0 1-.598.23zM3.831 123.893a.843.843 0 0 1-.597-.245L.245 120.65a.85.85 0 0 1 1.196-1.195l2.996 2.996a.85.85 0 0 1-.606 1.44zM39.9 30.13a.85.85 0 0 1-.574-1.471l2.299-2.13a.85.85 0 0 1 1.141 1.249l-2.299 2.13a.843.843 0 0 1-.567.222zM42.575 37.264a.843.843 0 0 1-.575-.222l-2.299-2.13a.85.85 0 1 1 1.142-1.25l2.299 2.131a.85.85 0 0 1-.575 1.471h.008zM32.444 37.548a.85.85 0 0 1-.574-1.471l2.299-2.13a.876.876 0 1 1 1.172 1.302l-2.299 2.13a.843.843 0 0 1-.598.169zM34.421 30.452a.843.843 0 0 1-.574-.222l-2.3-2.13a.85.85 0 0 1 1.12-1.28l2.299 2.13a.85.85 0 0 1-.575 1.471l.03.031zM196.169 142.084a.85.85 0 0 1-.575-1.471l2.299-2.13a.85.85 0 1 1 1.141 1.249l-2.298 2.13a.843.843 0 0 1-.567.222zM198.858 149.218a.843.843 0 0 1-.574-.222l-2.3-2.13a.85.85 0 1 1 1.142-1.25l2.3 2.131a.85.85 0 0 1-.575 1.471h.007zM188.728 149.54a.85.85 0 0 1-.575-1.471l2.3-2.13a.85.85 0 0 1 1.14 1.249l-2.298 2.13a.843.843 0 0 1-.567.222zM190.705 142.406a.843.843 0 0 1-.575-.222l-2.299-2.13a.85.85 0 1 1 1.142-1.25l2.299 2.13a.85.85 0 0 1-.575 1.472h.008z"/>
        <path fill="#A3A2A2" fill-rule="nonzero" d="M19.172 160.743h5.295"/>
        <path fill="#555" fill-rule="nonzero" d="M24.467 161.586h-5.31a.85.85 0 1 1 0-1.693h5.295a.85.85 0 1 1 0 1.693h.015z"/>
        <path fill="#A3A2A2" fill-rule="nonzero" d="M182.184 160.743h5.716"/>
        <path fill="#555" fill-rule="nonzero" d="M187.9 161.586h-5.716a.85.85 0 1 1 0-1.693h5.716a.85.85 0 1 1 0 1.693z"/>
        <path fill="#A3A2A2" fill-rule="nonzero" d="M192.13 160.743h1.487"/>
        <path fill="#555" fill-rule="nonzero" d="M193.617 161.586h-1.48a.85.85 0 1 1 0-1.693h1.48a.85.85 0 1 1 0 1.693z"/>
        <path fill="#A3A2A2" fill-rule="nonzero" d="M14.222 160.743h1.48"/>
        <path fill="#555" fill-rule="nonzero" d="M15.701 161.586h-1.479a.85.85 0 1 1 0-1.693h1.48a.85.85 0 1 1 0 1.693z"/>
        <g fill-rule="nonzero">
            <path fill="#FFF" d="M101.264 17.625a21.87 21.87 0 0 0-21.9 21.839 21.563 21.563 0 0 0 4.958 13.793l.076.092 16.636 23.892c.057.08.148.129.246.13a.33.33 0 0 0 .253-.13l16.812-24.153.053-.077a25.785 25.785 0 0 0 1.809-2.582.276.276 0 0 1 0-.061 1.8 1.8 0 0 1 .1-.23 21.778 21.778 0 0 0-19.043-32.513z"/>
            <path fill="#555" d="M101.28 80.061a2.98 2.98 0 0 1-2.437-1.272L82.238 54.943a24.169 24.169 0 0 1-5.556-15.48 24.575 24.575 0 1 1 46.061 11.878c-.08.19-.177.372-.29.544a27.762 27.762 0 0 1-1.947 2.782l-16.782 24.1a2.996 2.996 0 0 1-2.444 1.294zm0-62.398c-12.07-.026-21.878 9.731-21.916 21.8a21.563 21.563 0 0 0 4.958 13.794l.076.092 16.636 23.892c.057.08.148.129.246.13a.33.33 0 0 0 .253-.13l16.812-24.153.053-.077a25.785 25.785 0 0 0 1.809-2.582.276.276 0 0 1 0-.061 1.8 1.8 0 0 1 .1-.23 21.778 21.778 0 0 0-19.043-32.513l.016.038z"/>
            <path fill="#555" d="M100.858 53.188c-7.57-.038-13.68-6.2-13.655-13.77.025-7.57 6.176-13.691 13.747-13.678 7.57.012 13.701 6.153 13.701 13.724-.038 7.59-6.202 13.724-13.793 13.724zm0-24.774c-6.09.03-11.007 4.985-10.988 11.075.018 6.09 4.964 11.016 11.055 11.009 6.09-.007 11.025-4.944 11.029-11.034-.017-6.114-4.982-11.059-11.096-11.05z"/>
            <path fill="#DADBDC" d="M100.858 28.414c-6.09.03-11.007 4.985-10.988 11.075.018 6.09 4.964 11.016 11.055 11.009 6.09-.007 11.025-4.944 11.029-11.034-.017-6.114-4.982-11.059-11.096-11.05z"/>
        </g>
        <path fill="#A3A2A2" fill-rule="nonzero" d="M28.705 160.743h150.513"/>
        <path fill="#555" fill-rule="nonzero" d="M179.218 161.586H28.705a.85.85 0 1 1 0-1.693h150.513a.85.85 0 1 1 0 1.693z"/>
        <path fill="#FFF" fill-rule="nonzero" stroke="#555" stroke-linecap="round" stroke-width="2" d="M167.977 134.674s3.372 25.48-15.487 25.48h-48.65s15.892.766 13.263-26.054l50.874.574z"/>
        <path fill="#E6E7E8" fill-rule="nonzero" stroke="#555" stroke-linecap="round" stroke-width="2" d="M90.582 109.295h35.487c10.436 0 18.897 8.46 18.897 18.897v32.069H90.559v-50.966h.023z"/>
        <path fill="#FFF" fill-rule="nonzero" stroke="#555" stroke-linecap="round" stroke-width="2" d="M95.364 178.544H64.245c-6.758 0-12.26-6.222-12.26-13.893v-35.486c0-10.973 7.839-19.862 17.502-19.862h59.647c-9.663 0-17.502 8.896-17.502 19.862v30.85c.023 10.215-7.272 18.53-16.268 18.53z"/>
        <path fill="#E6E7E8" fill-rule="nonzero" stroke="#555" stroke-linecap="round" stroke-width="2" d="M34.192 152.996s-3.288 25.502 15.072 25.502H96.72s-15.494.766-12.927-26.054l-49.601.552zM92.2 118.835H61.225M85.893 134.061H57.985M85.893 147.287H57.985M85.893 160.084h-2.284"/>
        <text fill="#555" font-family="ArialRoundedMTBold, Arial Rounded MT Bold" font-size="12.34" transform="rotate(20.422 101.146 122.609)">
            <tspan x="98.071" y="127.109">$</tspan>
        </text>
        <text fill="#555" font-family="ArialRoundedMTBold, Arial Rounded MT Bold" font-size="12.34">
            <tspan x="91.609" y="140.621">$</tspan>
        </text>
        <text fill="#555" font-family="ArialRoundedMTBold, Arial Rounded MT Bold" font-size="12.34">
            <tspan x="91.609" y="153.648">$</tspan>
        </text>
        <text fill="#555" font-family="ArialRoundedMTBold, Arial Rounded MT Bold" font-size="12.34">
            <tspan x="91.609" y="166.674">$</tspan>
        </text>
    </g>
</svg>
