<?xml version="1.0" encoding="utf-8"?>
<!-- Generator: Adobe Illustrator 19.1.0, SVG Export Plug-In . SVG Version: 6.00 Build 0)  -->
<svg version="1.1" id="logotype" xmlns="http://www.w3.org/2000/svg" xmlns:xlink="http://www.w3.org/1999/xlink" x="0px" y="0px"
	 viewBox="0 0 151 33.3" style="enable-background:new 0 0 151 33.3;" xml:space="preserve">
<style type="text/css">
	.st0{fill:#FFFFFF;}
</style>
<g>
	<path class="st0" d="M22.3,2.6c0.6,0,1,0.5,1,1v18.6c0,0.6-0.5,1-1,1H3.7c-0.6,0-1-0.5-1-1V3.7c0-0.6,0.5-1,1-1H22.3 M22.3,0H3.7
		C1.6,0,0,1.6,0,3.7v18.6c0,2,1.6,3.7,3.7,3.7h18.6c2,0,3.7-1.6,3.7-3.7V3.7C26,1.6,24.3,0,22.3,0L22.3,0z"/>
	<polygon class="st0" points="13.1,5.8 13,5.8 5.8,5.8 5.8,12.6 5.8,13.1 5.8,19.9 13.1,19.9 13.1,13.1 20.3,13.1 20.3,5.8 	"/>
	<g>
		<g>
			<g>
				<path class="st0" d="M95.2,12.5l6,13.1c0,0-0.5,3.5-4.5,1.4l-0.7,3.4c0,0,5.3,3,8.3-2.2l6.3-15.7h-4.3l-3,8.7l-3.2-8.7H95.2z"/>
			</g>
			<g>
				<path class="st0" d="M56.8,13.4v-2.6h-4.3v13.6h4.3v-7.6c1-3.7,5.1-1.8,5.1-1.8c0.8-2.7,2.1-3.3,2.1-3.3
					C58.8,8.3,56.8,13.4,56.8,13.4z"/>
			</g>
			<g>
				<path class="st0" d="M151,14.5V11c-2.5-0.8-4-0.7-5-0.1c-0.9-0.4-2-0.7-3.1-0.7c-4.1,0-7.5,3.3-7.5,7.3s3.4,7.3,7.5,7.3
					c0.1,0,0.2,0,0.3,0v0c1.5,0,2.7,1,2.7,2.2c0,1.2-1.2,2.2-2.7,2.2c-1.5,0-2.7-1-2.7-2.2c0-0.2,0-0.4,0.1-0.6h-4.4
					c0,0.2,0,0.4,0,0.6c0,3.5,3.2,6.3,7,6.3c3.9,0,7-2.8,7-6.3c0-1.7-0.8-3.2-2-4.4c1.3-1.3,2.1-3.1,2.1-5.1c0-1.2-0.3-2.4-0.9-3.4
					C150.2,14,151,14.5,151,14.5z M143.2,20.6c-0.2,0-0.4,0-0.7,0c-1.5-0.2-2.7-1.5-2.7-3c0-1.7,1.4-3.1,3.1-3.1
					c1.7,0,3.1,1.4,3.1,3.1c0,1.5-1.1,2.8-2.5,3C143.3,20.6,143.3,20.6,143.2,20.6z"/>
			</g>
			<g>
				<path class="st0" d="M118.3,21c-0.5,0.2-1.2,0.3-1.4-0.3v-10h2.7v-4h-2.7V2.8h-4.5v3.9H95.2v4h17.3v10c0,0-0.7,6.6,6.6,4
					l1.6-0.6C119.7,23.3,118.9,22,118.3,21z"/>
			</g>
			<g>
				<path class="st0" d="M134.5,21.3c-0.4,0.1-0.8,0-1-0.4c0-0.1-0.1-0.2-0.1-0.2l0,0c0,0,0,0,0,0c0,0,0,0,0,0l0.1,0c0,0,0,0,0-0.1
					c0.4-0.9,0.7-2,0.7-3.1c0-4-3.3-7.3-7.3-7.3s-7.3,3.3-7.3,7.3s3.3,7.3,7.3,7.3c1.1,0,2.1-0.2,3-0.7c0.8,0.9,3.1,2.5,7,0.2
					C135.9,23.5,135,22.5,134.5,21.3z M126.7,20.7c-1.7,0-3.1-1.4-3.1-3.1s1.4-3.1,3.1-3.1s3.1,1.4,3.1,3.1S128.4,20.7,126.7,20.7z"
					/>
			</g>
			<g>
				<path class="st0" d="M67.6,18.3h5.8h0.2h4c0-0.3,0.1-0.7,0.1-1c0-0.3,0-0.5,0-0.8c-0.4-3.7-3.5-6.6-7.2-6.6
					c-4,0-7.3,3.3-7.3,7.4s3.3,7.4,7.3,7.4c2.3,0,4.3-1.1,5.7-2.8l-3.5-2c0,0-0.9,0.7-2,0.7c0,0-1.3,0-2.3-1
					C67.7,19.1,67.6,18.3,67.6,18.3z M68,16c0.4-1.3,1.4-2.3,2.6-2.3c1.2,0,2.2,0.9,2.6,2.3H68L68,16z"/>
			</g>
			<g>
				<path class="st0" d="M94.6,21.2c0,0-0.8,0.7-1.2-0.3V3.2H89v9.3c-1.1-1-2.4-1.5-3.9-1.5c-3.5,0-6.3,3.2-6.3,7s2.8,7,6.3,7
					c1.6,0,3.1-0.7,4.3-1.8c0.6,1.4,3,3.3,7.2,1.4L94.6,21.2z M89,20.3L89,20.3c-0.6,0.7-1.5,1.1-2.5,1.1c-1.4,0-2.6-0.8-3.1-2
					c-0.2-0.4-0.3-0.8-0.3-1.3c0-1.8,1.5-3.3,3.3-3.3c1,0,1.8,0.4,2.5,1.1c0,0,0,0,0,0v0c0.5,0.6,0.8,1.4,0.8,2.2
					C89.8,18.9,89.5,19.7,89,20.3z"/>
			</g>
			<g>
				<path class="st0" d="M41.9,12.4c0-3.6,2.9-6.5,6.5-6.5c1.4,0,2.7,0.4,3.7,1.2l3.4-4.7c-2-1.4-4.4-2.3-7.1-2.3
					c-6.7,0-12.1,5.4-12.1,12.1c0,6.7,5.4,12.1,12.1,12.1c0.9,0,1.7-0.1,2.5-0.3v-5.8c-0.8,0.3-1.7,0.5-2.6,0.5
					C44.8,18.9,41.9,16,41.9,12.4z"/>
			</g>
		</g>
	</g>
</g>
</svg>
