<?xml version="1.0" encoding="utf-8"?>
<!-- Generator: Adobe Illustrator 19.1.0, SVG Export Plug-In . SVG Version: 6.00 Build 0)  -->
<svg version="1.1" id="Layer_1" xmlns="http://www.w3.org/2000/svg" xmlns:xlink="http://www.w3.org/1999/xlink" x="0px" y="0px"
	 viewBox="0 2 26 26" style="enable-background:new 0 2 26 26;" xml:space="preserve">
<style type="text/css">
	.st0{fill:#FFFFFF;}
</style>
<g>
	<path class="st0" d="M22.2,2H3.7C1.6,2,0,3.6,0,5.7v18.6c0,2,1.6,3.7,3.7,3.7h18.6c2,0,3.7-1.6,3.7-3.7V5.7C25.9,3.6,24.3,2,22.2,2
		z M23.3,24.2c0,0.6-0.5,1-1,1H3.7c-0.6,0-1-0.5-1-1V5.7c0-0.6,0.5-1,1-1h18.6c0.6,0,1,0.5,1,1C23.3,5.7,23.3,24.2,23.3,24.2z"/>
	<polygon class="st0" points="13,7.8 13,7.8 5.8,7.8 5.8,14.6 5.8,15 5.8,21.9 13,21.9 13,15 20.2,15 20.2,7.8 	"/>
</g>
</svg>
