<?xml version="1.0" encoding="utf-8"?>
<!-- Generator: Adobe Illustrator 23.0.1, SVG Export Plug-In . SVG Version: 6.00 Build 0)  -->
<svg version="1.1" id="logotype" xmlns="http://www.w3.org/2000/svg" xmlns:xlink="http://www.w3.org/1999/xlink" x="0px" y="0px"
	 viewBox="0 0 158.7 33.3" style="enable-background:new 0 0 158.7 33.3;" xml:space="preserve">
<style type="text/css">
	.st0{fill:#FFFFFF;}
</style>
<g>
	<path class="st0" d="M30.4,19.7l0-10.1c0-1.5-1.2-2.8-2.7-2.8c0,0,0,0,0,0c-1,0-1.9,0.1-2.6,0.2l0,11.9c-0.8,0.8-1.5,1.2-2.3,1.2
		c-0.8,0-1.3-0.2-1.4-0.6c-0.2-0.4-0.3-1-0.3-1.8l0-7.6c0-1.2-0.2-2-0.7-2.6C20,7,19.2,6.7,18,6.7c-1.2,0-2.2,0.4-3.1,1.2
		c0.5,0.8,0.8,2,0.8,3.6l0,7.3c0,1.9,0.4,3.5,1.3,4.6c0.8,1.2,2.1,1.7,3.6,1.7c1.6,0,3.3-0.9,5.1-2.6c0.8,1.6,2.2,2.4,4,2.5
		c0.3-0.3,0.7-0.7,1-1.2c0.3-0.6,0.5-1.1,0.6-1.6C30.8,21.8,30.5,21,30.4,19.7z"/>
	<path class="st0" d="M47,14c0-1.1-0.2-2.1-0.5-3c-0.3-0.9-0.8-1.7-1.4-2.4c-0.6-0.7-1.4-1.2-2.2-1.6c-0.9-0.4-1.9-0.6-3-0.6
		c-1.3,0-2.4,0.2-3.4,0.7c-1,0.5-1.8,1.1-2.4,2c-0.6,0.8-1.1,1.8-1.4,3c-0.3,1.1-0.5,2.4-0.5,3.7c0,1.4,0.1,2.7,0.4,3.8
		c0.3,1.2,0.7,2.2,1.3,3c0.6,0.9,1.4,1.5,2.4,2c1,0.5,2.2,0.7,3.6,0.7c2.6,0,4.9-0.7,6.7-2.1c0,0,0,0,0,0c-0.2-1.8-1.9-2.9-3.6-2.5
		c-0.1,0-0.2,0-0.3,0.1C42,20.9,41.4,21,40.8,21c-1.1,0-1.9-0.3-2.4-0.9c-0.5-0.6-0.7-1.4-0.8-2.5l8.9,0C46.9,16.6,47,15.4,47,14z
		 M37.6,13.8c0.1-1.2,0.3-2.1,0.6-2.6c0.3-0.5,0.9-0.8,1.6-0.8c0.7,0,1.3,0.3,1.7,0.9c0.4,0.6,0.6,1.3,0.6,2.2l0,0.4L37.6,13.8z"/>
	<path class="st0" d="M62.5,6.6C61.1,6.6,60,7.1,59.3,8c-1.3-1.1-2.8-1.7-4.7-1.7c-0.9,0-1.8,0.2-2.6,0.7c-0.8,0.4-1.5,1.1-2.1,1.9
		c-0.6,0.8-1.1,1.8-1.4,3c-0.4,1.2-0.5,2.5-0.5,3.9c0,2.9,0.5,5.2,1.6,6.8c1,1.7,2.6,2.5,4.6,2.5c1.4,0,2.7-0.5,3.9-1.4l0,1.2
		c0,2.4-1.1,3.6-3.4,3.6c-1.6,0-3.1-0.3-4.7-1.1c-0.4,0.5-0.7,1.1-0.9,1.9c-0.2,0.8-0.4,1.5-0.4,2.2c1.9,0.8,4.1,1.2,6.4,1.2
		c1.4,0,2.6-0.2,3.6-0.5c1-0.3,1.9-0.9,2.5-1.8c0.7-0.8,1.2-2,1.5-3.4c0.3-1.4,0.5-3.3,0.5-5.5l0-9.4c0-1.3,0.3-2.1,1-2.6
		c-0.1-0.5-0.3-1-0.6-1.6C63.2,7.3,62.8,6.9,62.5,6.6z M55.4,20.6c-1.4,0-2-1.6-2-4.7c0-3.6,0.8-5.4,2.3-5.4c0.7,0,1.5,0.4,2.3,1.2
		l0,7.7C57.2,20.2,56.4,20.6,55.4,20.6z"/>
	<path class="st0" d="M72.7,6.3c-1.3,0-2.4,0.2-3.4,0.7c-1,0.5-1.8,1.1-2.5,1.9c-0.7,0.8-1.2,1.8-1.5,3c-0.3,1.2-0.5,2.5-0.5,3.9
		c0,1.4,0.2,2.7,0.5,3.9c0.3,1.2,0.9,2.2,1.5,3c0.7,0.8,1.5,1.5,2.5,1.9c1,0.5,2.1,0.7,3.4,0.7c1.3,0,2.4-0.2,3.4-0.7
		c1-0.4,1.8-1.1,2.5-1.9c0.7-0.8,1.2-1.8,1.5-3c0.4-1.2,0.5-2.5,0.5-3.9c0-3.2-0.8-5.6-2.5-7.4C76.8,7,74.9,6.3,72.7,6.3z
		 M74.7,19.7c-0.3,0.9-1,1.4-2,1.4c-0.5,0-0.9-0.1-1.2-0.4c-0.3-0.2-0.6-0.6-0.7-1.1c-0.2-0.5-0.3-1.1-0.3-1.8
		c-0.1-0.7-0.1-1.6-0.1-2.6c0-0.6,0-1.2,0.1-1.8c0.1-0.6,0.2-1.1,0.4-1.5c0.2-0.4,0.4-0.8,0.7-1c0.3-0.3,0.7-0.4,1.2-0.4
		c1,0,1.6,0.4,1.9,1.3c0.3,0.9,0.5,2.2,0.5,3.9C75.1,17.4,75,18.7,74.7,19.7z"/>
	<path class="st0" d="M111.2,9.2c0-1-0.8-1.9-1.8-1.9c0,0,0,0,0,0c-0.5,0-1.1,0.1-1.7,0.1l0,12.4c-0.6,0.7-1.3,1.2-2.1,1.6
		c-0.8,0.4-1.5,0.6-2.3,0.6c-0.8,0-1.3-0.3-1.6-0.8c-0.3-0.5-0.4-1.4-0.5-2.6l0-9.1c0-1.5-0.6-2.3-1.9-2.3c-0.9,0-1.7,0.3-2.2,0.8
		c0.4,0.7,0.6,1.8,0.6,3.2l0,8.3c0,1.8,0.4,3.2,1.1,4.2c0.8,1.1,1.9,1.6,3.4,1.6c2,0,3.9-0.9,5.7-2.7c0.5,1.5,1.4,2.3,2.9,2.6
		c0.6-0.4,1.1-1,1.3-1.9c-0.6-0.6-1-1.7-1-3.4L111.2,9.2z"/>
	<path class="st0" d="M125.1,9.1c-0.6-0.7-1.3-1.2-2.2-1.6c-0.9-0.4-1.8-0.6-2.9-0.6c-1.1,0-2.1,0.2-3,0.7c-0.9,0.5-1.6,1.1-2.2,1.9
		c-0.6,0.8-1,1.8-1.4,2.9c-0.3,1.1-0.5,2.4-0.5,3.7c0,1.3,0.1,2.6,0.4,3.7c0.3,1.2,0.7,2.1,1.2,3c0.6,0.8,1.3,1.5,2.2,2
		s2,0.7,3.3,0.7c2.5,0,4.6-0.7,6.4-2c0,0,0,0,0,0c-0.2-1.3-1.5-2-2.7-1.6c-0.3,0.1-0.6,0.2-0.9,0.3c-0.8,0.2-1.5,0.3-2.2,0.3
		c-1.4,0-2.5-0.4-3.1-1.3c-0.6-0.9-0.9-2.1-1-3.8l10.1,0c0.1-0.5,0.2-0.9,0.2-1.4c0-0.5,0-0.9,0-1.4c0-1.1-0.2-2.1-0.5-3.1
		C126.1,10.6,125.7,9.7,125.1,9.1z M116.6,14.7c0.2-3.4,1.3-5,3.5-5c1.2,0,2,0.4,2.6,1.3c0.6,0.8,0.8,1.9,0.8,3.3l0,0.5L116.6,14.7z
		"/>
	<path class="st0" d="M142.1,7.9c-0.3-0.4-0.5-0.7-0.8-0.9c-1.1,0.3-1.9,0.8-2.4,1.7c-1.3-1.2-2.8-1.9-4.7-1.8
		c-0.9,0-1.7,0.2-2.5,0.6c-0.8,0.4-1.5,1-2.1,1.8c-0.6,0.8-1.1,1.7-1.4,2.9c-0.3,1.1-0.5,2.4-0.5,3.9c0,2.9,0.5,5.1,1.5,6.8
		c1,1.6,2.4,2.5,4.2,2.5c1.8,0,3.4-0.7,4.7-1.9l0,1.6c0,1.6-0.3,2.8-0.9,3.7c-0.6,0.9-1.7,1.3-3.3,1.3c-1.7,0-3.2-0.4-4.7-1.1
		c-0.6,0.7-0.9,1.6-0.9,2.8c1.9,0.8,3.9,1.2,5.9,1.2c1.3,0,2.4-0.2,3.3-0.5c0.9-0.3,1.7-0.9,2.3-1.7c0.6-0.8,1-1.8,1.3-3.1
		c0.3-1.3,0.4-2.8,0.4-4.6l0-10.6c0-1.6,0.3-2.8,0.9-3.4C142.5,8.7,142.3,8.3,142.1,7.9z M134.4,22.2c-0.9,0-1.7-0.5-2.2-1.5
		c-0.6-1-0.9-2.5-0.9-4.6c0-2.1,0.3-3.7,0.9-4.8c0.6-1.1,1.5-1.6,2.6-1.6c1.1,0,2.2,0.5,3.4,1.6l0,8.7
		C137.1,21.5,135.8,22.2,134.4,22.2z"/>
	<path class="st0" d="M157.6,12.3c-0.3-1.1-0.8-2.1-1.4-2.9c-0.6-0.8-1.4-1.4-2.3-1.9c-0.9-0.4-2-0.7-3.1-0.7
		c-1.2,0-2.2,0.2-3.1,0.7c-0.9,0.4-1.7,1.1-2.3,1.9c-0.6,0.8-1.1,1.8-1.4,3c-0.3,1.1-0.5,2.4-0.5,3.8c0,1.4,0.2,2.7,0.5,3.8
		c0.3,1.1,0.8,2.1,1.4,2.9c0.6,0.8,1.4,1.4,2.3,1.9c0.9,0.4,2,0.7,3.1,0.7c2.1,0,3.7-0.7,5-2c1.6-1.7,2.4-4.1,2.4-7.3
		C158.1,14.7,158,13.5,157.6,12.3z M150.8,22.6c-2.5,0-3.7-2.1-3.7-6.5c0-4.3,1.2-6.5,3.7-6.5c2.5,0,3.7,2.1,3.8,6.5
		C154.5,20.4,153.3,22.6,150.8,22.6z"/>
	<path class="st0" d="M7.2,20.1l-1.5,0l0-16.2c0-2.4-1.1-3.6-3.2-3.6l-2,0L0.2,0.5l0.1,21.2c0,1,0.3,1.8,0.9,2.4
		C1.7,24.7,2.4,25,3.4,25l7.7,0c1,0,1.8-0.2,2.4-0.7c0.6-0.5,1-1.1,1.1-1.8c0.1-0.7,0.2-1.5,0.2-2.5l-5.9,0C8.3,20,7.7,20,7.2,20.1z
		"/>
	<path class="st0" d="M90.1,21.8l-2.8,0L87.3,3c0-0.9-0.2-1.5-0.5-1.9c-0.3-0.4-0.8-0.6-1.6-0.6l-1.4,0l-0.2,0.2l0.1,22
		c0,0.7,0.2,1.3,0.6,1.7c0.4,0.4,0.9,0.6,1.5,0.6l8.9,0c1.4,0,2.2-0.6,2.4-1.8c0.1-0.5,0.1-1,0.1-1.5l-6.8,0
		C90.3,21.8,90.2,21.8,90.1,21.8z"/>
</g>
</svg>
