<?xml version="1.0" encoding="utf-8"?>
<!-- Generator: Adobe Illustrator 23.0.1, SVG Export Plug-In . SVG Version: 6.00 Build 0)  -->
<svg version="1.1" id="Layer_1" xmlns="http://www.w3.org/2000/svg" xmlns:xlink="http://www.w3.org/1999/xlink" x="0px" y="0px"
	 viewBox="0 0 26 26" style="enable-background:new 0 0 26 26;" xml:space="preserve">
<style type="text/css">
	.st0{opacity:0.5;fill:#F1F1F2;}
	.st1{fill:#F1F1F2;}
</style>
<g>
	<path class="st0" d="M4.5,8.5h3.6V0.3H0.1V4c0,1.3,0.5,2.4,1.3,3.2S3.3,8.5,4.5,8.5z"/>
	<path class="st1" d="M24.6,1.3c-0.6-0.6-1.5-1-2.5-1h-1.3h-3H8.1v8.3h9.7v8.9h3.6c1.1,0,2.2,0.5,2.9,1.2c0.9,0.8,1.4,2,1.4,3.3V8.5
		V5.4V4C25.7,2.9,25.3,2,24.6,1.3z"/>
	<path class="st1" d="M8.1,17.5V8.5H4.5C3.3,8.5,2.2,8,1.4,7.2C0.6,6.4,0.1,5.3,0.1,4v13.5v3.1V22c0,1,0.4,1.9,0.9,2.5
		c0.7,0.8,1.6,1.2,2.7,1.2h1.3h3h9.7v-8.3H8.1z"/>
	<path class="st0" d="M21.4,17.5h-3.6v8.3h7.9V22c0-1.3-0.5-2.5-1.4-3.3C23.6,17.9,22.5,17.5,21.4,17.5z"/>
</g>
</svg>
