<?xml version="1.0" encoding="utf-8"?>
<!-- Generator: Adobe Illustrator 23.0.1, SVG Export Plug-In . SVG Version: 6.00 Build 0)  -->
<svg version="1.1" id="logotype" xmlns="http://www.w3.org/2000/svg" xmlns:xlink="http://www.w3.org/1999/xlink" x="0px" y="0px"
	 viewBox="0 0 196 33.3" style="enable-background:new 0 0 196 33.3;" xml:space="preserve">
<style type="text/css">
	.st0{fill:#6F59A5;}
	.st1{fill:#42BCA2;}
	.st2{fill:#45336A;}
</style>
<g>
	<g>
		<path class="st0" d="M45.9,18.6l0-7.4c0-1.6-0.3-2.8-0.8-3.6c0.9-0.8,1.9-1.2,3.1-1.2c1.2,0,2.1,0.3,2.5,0.9
			c0.4,0.6,0.7,1.5,0.7,2.6l0,7.7c0,0.8,0.1,1.5,0.3,1.8c0.2,0.4,0.7,0.6,1.5,0.6c0.8,0,1.5-0.4,2.3-1.2l0-12.1
			C56.1,6.5,57,6.4,58,6.4c0,0,0,0,0,0c1.5,0,2.7,1.3,2.7,2.8l0,10.3c0,1.3,0.3,2.2,1,2.6c-0.1,0.5-0.3,1-0.7,1.6
			c-0.3,0.6-0.7,1-1,1.3c-1.9-0.1-3.3-0.9-4.1-2.5c-1.8,1.7-3.5,2.6-5.2,2.6c-1.6,0-2.8-0.6-3.7-1.7C46.3,22.1,45.9,20.5,45.9,18.6z
			"/>
		<path class="st0" d="M77.1,17.4l-9,0c0,1.1,0.3,1.9,0.8,2.5c0.5,0.6,1.3,0.9,2.4,0.9c0.6,0,1.2-0.1,1.9-0.2c0.1,0,0.2,0,0.3-0.1
			c1.7-0.4,3.4,0.7,3.6,2.5c0,0,0,0,0,0c-1.8,1.4-4.1,2.1-6.8,2.1c-1.5,0-2.7-0.2-3.7-0.7c-1-0.5-1.8-1.2-2.4-2
			c-0.6-0.9-1.1-1.9-1.3-3.1c-0.3-1.2-0.4-2.5-0.4-3.9c0-1.4,0.1-2.6,0.5-3.7c0.3-1.1,0.8-2.1,1.4-3c0.6-0.8,1.4-1.5,2.4-2
			C67.8,6.3,69,6,70.3,6c1.1,0,2.1,0.2,3,0.6c0.9,0.4,1.6,0.9,2.3,1.6c0.6,0.7,1.1,1.5,1.4,2.4c0.3,0.9,0.5,2,0.5,3.1
			C77.5,15.1,77.4,16.4,77.1,17.4z M68,13.5l4.5,0l0-0.4c0-0.9-0.2-1.6-0.6-2.2C71.6,10.3,71,10,70.3,10c-0.7,0-1.3,0.3-1.6,0.8
			C68.3,11.4,68.1,12.3,68,13.5z"/>
		<path class="st0" d="M89.9,7.7c0.8-0.9,1.9-1.4,3.3-1.5c0.4,0.3,0.7,0.7,1.1,1.3c0.3,0.6,0.5,1.1,0.6,1.6c-0.6,0.5-1,1.3-1,2.6
			l0,9.6c0,2.2-0.2,4.1-0.5,5.5c-0.3,1.5-0.8,2.6-1.5,3.5c-0.7,0.9-1.5,1.5-2.6,1.8c-1,0.3-2.3,0.5-3.7,0.5c-2.4,0-4.6-0.4-6.5-1.2
			c0-0.7,0.1-1.4,0.4-2.2c0.3-0.8,0.6-1.4,0.9-1.9c1.5,0.7,3.1,1.1,4.7,1.1c2.3,0,3.5-1.2,3.5-3.7l0-1.2c-1.2,0.9-2.6,1.4-3.9,1.4
			c-2.1,0-3.6-0.8-4.7-2.5c-1.1-1.7-1.6-4-1.6-6.9c0-1.5,0.2-2.8,0.5-4c0.4-1.2,0.8-2.2,1.5-3c0.6-0.8,1.3-1.5,2.2-1.9
			C83.4,6.2,84.3,6,85.2,6C87.1,6,88.6,6.5,89.9,7.7z M88.6,19.1l0-7.7c-0.8-0.8-1.6-1.2-2.3-1.2c-1.6,0-2.4,1.8-2.4,5.4
			c0,3.2,0.7,4.8,2.1,4.8C87,20.4,87.8,20,88.6,19.1z"/>
		<path class="st0" d="M109,8.1c1.7,1.7,2.5,4.2,2.5,7.4c0,1.4-0.2,2.8-0.5,3.9c-0.4,1.2-0.9,2.2-1.6,3c-0.7,0.8-1.5,1.5-2.5,1.9
			c-1,0.4-2.1,0.7-3.4,0.7c-1.3,0-2.4-0.2-3.4-0.7c-1-0.5-1.8-1.1-2.5-1.9c-0.7-0.8-1.2-1.8-1.5-3c-0.3-1.2-0.5-2.5-0.5-3.9
			c0-1.4,0.2-2.8,0.5-3.9c0.3-1.2,0.8-2.2,1.5-3c0.7-0.8,1.5-1.5,2.5-2c1-0.5,2.1-0.7,3.4-0.7C105.8,5.9,107.6,6.6,109,8.1z
			 M103.5,10.2c-0.5,0-0.9,0.1-1.2,0.4c-0.3,0.3-0.6,0.6-0.7,1c-0.2,0.4-0.3,0.9-0.4,1.5c-0.1,0.6-0.1,1.2-0.1,1.8
			c0,1,0,1.9,0.1,2.6c0.1,0.7,0.2,1.4,0.4,1.8c0.2,0.5,0.4,0.9,0.7,1.1c0.3,0.2,0.7,0.4,1.2,0.4c1,0,1.7-0.5,2-1.4
			c0.3-0.9,0.5-2.3,0.5-4c0-1.7-0.2-3.1-0.5-4C105.1,10.6,104.5,10.2,103.5,10.2z"/>
	</g>
	<g>
		<path class="st0" d="M128.8,19.3l0-8.4c0-1.4-0.2-2.5-0.6-3.3c0.6-0.5,1.3-0.8,2.2-0.8c1.3,0,1.9,0.8,1.9,2.3l0,9.2
			c0,1.3,0.2,2.1,0.5,2.7c0.3,0.5,0.8,0.8,1.6,0.8c0.8,0,1.5-0.2,2.3-0.6c0.8-0.4,1.5-0.9,2.1-1.6l0-12.6c0.6-0.1,1.2-0.1,1.8-0.1
			c0,0,0,0,0,0c1,0,1.8,0.9,1.8,1.9l0,11c0,1.7,0.3,2.8,1,3.4c-0.3,0.9-0.7,1.5-1.3,1.9c-1.5-0.3-2.4-1.1-2.9-2.6
			c-1.8,1.8-3.7,2.7-5.8,2.7c-1.5,0-2.7-0.5-3.4-1.6C129.2,22.6,128.8,21.1,128.8,19.3z"/>
		<path class="st0" d="M158.1,17.1l-10.2,0c0.1,1.7,0.4,2.9,1,3.8c0.6,0.9,1.6,1.3,3.1,1.3c0.7,0,1.4-0.1,2.2-0.3
			c0.3-0.1,0.6-0.2,0.9-0.3c1.2-0.5,2.5,0.3,2.7,1.6c0,0,0,0,0,0c-1.8,1.4-4,2-6.5,2c-1.3,0-2.4-0.2-3.3-0.7s-1.6-1.1-2.2-2
			c-0.6-0.8-1-1.8-1.2-3c-0.3-1.2-0.4-2.4-0.4-3.8c0-1.3,0.2-2.6,0.5-3.7c0.3-1.1,0.8-2.1,1.4-3c0.6-0.8,1.3-1.5,2.2-1.9
			c0.9-0.5,1.9-0.7,3-0.7c1.1,0,2.1,0.2,3,0.6c0.9,0.4,1.6,0.9,2.2,1.6c0.6,0.7,1.1,1.5,1.4,2.5c0.3,1,0.5,2,0.5,3.1
			c0,0.5,0,1,0,1.4C158.3,16.2,158.2,16.7,158.1,17.1z M151.5,9.3c-2.2,0-3.4,1.7-3.5,5.1l7,0l0-0.5c0-1.4-0.3-2.5-0.9-3.3
			C153.5,9.8,152.6,9.3,151.5,9.3z"/>
		<path class="st0" d="M170.5,8.4c0.5-0.8,1.3-1.4,2.4-1.7c0.3,0.2,0.5,0.5,0.8,0.9c0.3,0.4,0.4,0.7,0.5,1c-0.6,0.7-1,1.8-1,3.4
			l0,10.7c0,1.9-0.1,3.4-0.4,4.7c-0.3,1.3-0.7,2.3-1.3,3.1c-0.6,0.8-1.4,1.4-2.3,1.7c-0.9,0.4-2,0.5-3.3,0.5c-2.1,0-4-0.4-6-1.2
			c0-1.2,0.3-2.1,0.9-2.8c1.5,0.7,3,1.1,4.7,1.1c1.6,0,2.8-0.4,3.4-1.3c0.6-0.9,0.9-2.1,0.9-3.7l0-1.7c-1.4,1.3-3,2-4.8,2
			c-1.8,0-3.2-0.8-4.3-2.5c-1-1.7-1.6-3.9-1.6-6.9c0-1.5,0.2-2.8,0.5-3.9c0.3-1.1,0.8-2.1,1.4-2.9c0.6-0.8,1.3-1.4,2.1-1.8
			c0.8-0.4,1.6-0.6,2.5-0.6C167.6,6.5,169.2,7.1,170.5,8.4z M169.8,19.9l0-8.8c-1.2-1.1-2.3-1.6-3.4-1.6s-2,0.5-2.6,1.6
			c-0.6,1.1-1,2.7-1,4.8c0,2.1,0.3,3.6,0.9,4.6c0.6,1,1.3,1.5,2.3,1.5C167.4,22.1,168.6,21.3,169.8,19.9z"/>
		<path class="st0" d="M187.5,23.3c-1.3,1.3-2.9,2-5,2c-1.2,0-2.3-0.2-3.2-0.7c-0.9-0.4-1.7-1.1-2.3-1.9c-0.6-0.8-1.1-1.8-1.5-3
			c-0.3-1.1-0.5-2.4-0.5-3.8c0-1.4,0.2-2.7,0.5-3.8c0.3-1.2,0.8-2.2,1.4-3c0.6-0.8,1.4-1.5,2.3-1.9c0.9-0.4,2-0.7,3.2-0.7
			c1.2,0,2.3,0.2,3.2,0.7c0.9,0.4,1.7,1.1,2.3,1.9c0.6,0.8,1.1,1.8,1.5,3c0.3,1.2,0.5,2.4,0.5,3.8C190,19.1,189.2,21.6,187.5,23.3z
			 M182.5,9.3c-2.5,0-3.7,2.2-3.7,6.6c0,4.4,1.3,6.5,3.8,6.5c2.5,0,3.8-2.2,3.8-6.6C186.3,11.5,185,9.3,182.5,9.3z"/>
	</g>
	<g>
		<path class="st0" d="M8.1,25.1L8.1,25.1c-4,0-7.3-3.2-7.3-7.2l0-17.2l7.3,0L8.1,25.1z"/>
		<path class="st0" d="M0.8,21.7l0-4.1l19.4-0.1c2.2,0,4,1.8,4,4.1l0,3.4L4.1,25.1c-1,0-1.8-0.4-2.4-1.1C1.1,23.4,0.8,22.6,0.8,21.7
			z"/>
		<path class="st1" d="M16.9,0.6L16.9,0.6c4,0,7.3,3.2,7.3,7.2l0,15.6l-7.3,0L16.9,0.6z"/>
		<path class="st1" d="M24.2,4l0,4.1l-17.5,0l0-7.6l14.2,0c0.9,0,1.7,0.4,2.3,0.9C23.8,2.1,24.2,3,24.2,4z"/>
		<path class="st2" d="M4.7,8.2l3.3,0l0-7.6l-7.3,0l0,3.4c0,1.1,0.5,2.2,1.2,2.9S3.6,8.2,4.7,8.2z"/>
		<path class="st2" d="M20.2,17.5l-3.3,0l0,7.6l7.3,0l0-3.4c0-1.2-0.5-2.3-1.3-3.1C22.2,17.9,21.3,17.5,20.2,17.5z"/>
	</g>
	<path class="st0" d="M38.9,19.8c-0.6,0-1.2,0-1.7,0l-1.5,0l0-16.4c0-2.5-1.1-3.7-3.2-3.7l-2,0L30.1,0l0.1,21.5c0,1,0.3,1.9,0.9,2.5
		c0.6,0.6,1.4,0.9,2.4,0.9l7.8,0c1,0,1.8-0.3,2.5-0.7c0.6-0.5,1-1.1,1.1-1.8c0.1-0.7,0.2-1.5,0.2-2.5L38.9,19.8z"/>
	<path class="st0" d="M121.4,21.6c-0.1,0-0.2,0-0.3,0l-2.8,0l-0.1-19c0-0.9-0.2-1.5-0.5-1.9c-0.3-0.4-0.9-0.6-1.6-0.6l-1.4,0
		l-0.2,0.2l0.1,22.3c0,0.7,0.2,1.3,0.6,1.8c0.4,0.4,0.9,0.6,1.6,0.6l9,0c1.4,0,2.2-0.6,2.4-1.9c0.1-0.5,0.1-1,0.1-1.5L121.4,21.6z"
		/>
</g>
</svg>
