<svg xmlns="http://www.w3.org/2000/svg" width="265" height="220" viewBox="0 0 265 220">
    <g fill="none" fill-rule="evenodd" opacity=".52">
        <path d="M-16.88-23h290.71v258.86H-16.88z"/>
        <path fill="#DADBDC" fill-rule="nonzero" d="M54.75 206.26h136.36c39.438-29.386 55.61-80.735 40.13-127.417C215.76 32.16 172.113.648 122.93.648S30.1 32.16 14.62 78.843c-15.48 46.682.692 98.031 40.13 127.417z"/>
        <g fill-rule="nonzero">
            <path fill="#DEDEDE" d="M64.18 201.13l5-22s22.76 4.49 28.53-21L63 150.24l-10.86 48.17 12 2.72h.04z"/>
            <path fill="#555" d="M62.94 200.85l2.49.56 4.74-21a28.63 28.63 0 0 0 11.55-1.16c6.15-2 14.12-7.22 17.22-20.92l-2.49-.56c-2.3 10.18-7.57 16.67-15.66 19.28a25.3 25.3 0 0 1-11.42.9l-1.21-.24-5.22 23.14z"/>
            <path fill="#DEDEDE" d="M101.16 116.31a4.79 4.79 0 0 0 5 4.1l11.09-.71a4.21 4.21 0 0 0 4.26-4.46l-.1-1.14a4.77 4.77 0 0 0-5-4.1l-11.09.72a4.21 4.21 0 0 0-4.27 4.45l.11 1.14z"/>
            <path fill="#555" d="M104.61 121.41a6.38 6.38 0 0 0 1.69.16l11.07-.71a5.37 5.37 0 0 0 5.41-5.67l-.1-1.14a6.09 6.09 0 0 0-6.41-5.21l-11.08.71a5.36 5.36 0 0 0-5.4 5.67l.1 1.14a5.53 5.53 0 0 0 2.08 3.78 6.38 6.38 0 0 0 2.64 1.27zm1.47-2.17a3.7 3.7 0 0 1-2.46-.82 3.14 3.14 0 0 1-1.19-2.16l-.1-1.14a3.06 3.06 0 0 1 3.1-3.24l11.07-.71a3.47 3.47 0 0 1 3.65 3l.1 1.14a3.07 3.07 0 0 1-3.1 3.24l-11.07.69z"/>
            <path fill="#FFF" d="M117.93 79.93c.86-3.8-1.83-7.65-6-8.59l-35.61-8c-4.18-1-8.27 1.36-9.12 5.16l-18 79.74c-.86 3.79 1.83 7.64 6 8.58l35.61 8c4.18 1 8.27-1.36 9.12-5.16l18-79.73z"/>
            <path fill="#555" d="M54.92 157.9l35.6 8c4.86 1.1 9.63-1.59 10.63-6l18-79.73c1-4.42-2.15-8.91-7-10l-35.6-8c-4.86-1.1-9.63 1.6-10.63 6l-18 79.73c-1 4.42 2.14 8.91 7 10zm56.74-85.43c3.49.78 5.74 4 5 7.17l-18 79.74c-.72 3.17-4.14 5.1-7.63 4.31l-35.6-8.05a6.21 6.21 0 0 1-5-7.17l18-79.74c.72-3.17 4.14-5.1 7.63-4.31l35.6 8.05z"/>
            <path fill="#DADBDC" d="M53.59 144.902L69.83 73.065l43.736 9.889-16.241 71.836z"/>
            <path fill="#555" d="M52.59 145.47L98 155.73l16.58-73.34-45.41-10.27-16.58 73.35zm44.07 8.38l-42.07-9.51L70.49 74l42.07 9.51-15.9 70.34zM92.6 70.28a.83.83 0 0 0 1.61.37.8.8 0 0 0-.64-.92.78.78 0 0 0-.97.55zM88.44 72.52a.63.63 0 0 0 .5.72l7.29 1.64a.61.61 0 0 0 .76-.43.61.61 0 0 0-.5-.71l-7.29-1.65a.61.61 0 0 0-.76.43zM73.27 159.5a4.12 4.12 0 1 0-3.5-5 4.33 4.33 0 0 0 3.5 5zm1.47-6.5a2.57 2.57 0 1 1-3.31 1.88 2.71 2.71 0 0 1 3.31-1.88z"/>
            <path fill="#FFF" d="M67.38 83.92l41.31 20.59 1.21-5.35-41.26-20.83zM67.03 85.44l41.14 21.36-.52 2.3-41.09-21.59zM58.22 124.4l41.32 20.58.69-3.05-41.26-20.82zM57.88 125.93l41.14 21.35-.35 1.53-41.09-21.58z"/>
            <path fill="#555" d="M52.59 145.47L98 155.73l16.58-73.34-45.41-10.27-16.58 73.35zm44.07 8.38l-42.07-9.51L70.49 74l42.07 9.51-15.9 70.34z"/>
            <path fill="#DEDEDE" d="M28.08 193l14.17-62.7 12.45-17.9L75 117s-.37 10.13-12.71 7.34L55 135.48s21.11 11.61 8.16 34.43l-6.66 29.48L28.08 193z"/>
            <path fill="#555" d="M27.82 194.1a1.23 1.23 0 0 0 1.5-.85l14.13-62.5 11.86-17 18.32 4.14a7.3 7.3 0 0 1-2.85 4.58c-1.91 1.3-4.67 1.56-8.19.76l-.89-.2-8.45 12.85 1.14.62a26.7 26.7 0 0 1 8.52 8.31c4.56 7.24 4.27 15.51-.87 24.56a1.15 1.15 0 0 0 .56 1.59c.6.315 1.342.12 1.71-.45 7-12.25 4.23-21.39.73-26.9a29.13 29.13 0 0 0-8.32-8.41l6.28-9.55c3.88.72 7 .27 9.39-1.34a9.82 9.82 0 0 0 3.94-7.23v-1l-22.25-5-13 18.71-14.25 62.9a1.23 1.23 0 0 0 .99 1.41z"/>
            <path fill="#DEDEDE" d="M93.23 140.43a4.82 4.82 0 0 0 5.19 3.93l8.65-.62a4.19 4.19 0 0 0 4.08-4.6L111 138a4.81 4.81 0 0 0-5.19-3.94l-8.65.62a4.18 4.18 0 0 0-4.07 4.6l.14 1.15z"/>
            <path fill="#555" d="M96.68 145.38a6.23 6.23 0 0 0 1.89.14l8.65-.62a5.8 5.8 0 0 0 4-1.88 5 5 0 0 0 1.23-4l-.15-1.13a6.12 6.12 0 0 0-6.6-5l-8.65.62a5.33 5.33 0 0 0-5.19 5.85l.15 1.14a6 6 0 0 0 4.67 4.88zm10.37-10.06a3.41 3.41 0 0 1 2.69 2.78l.14 1.13a2.82 2.82 0 0 1-.7 2.27 3.29 3.29 0 0 1-2.26 1.08l-8.65.62a3.51 3.51 0 0 1-3.78-2.86l-.14-1.14a3.05 3.05 0 0 1 3-3.35l8.64-.62a4 4 0 0 1 1.06.09z"/>
            <path fill="#DEDEDE" d="M96.83 128.63a4.81 4.81 0 0 0 5.18 3.94l7.73-.54a4.19 4.19 0 0 0 4.08-4.6l-.14-1.14a4.82 4.82 0 0 0-5.19-3.94l-7.72.55a4.18 4.18 0 0 0-4.08 4.59l.14 1.14z"/>
            <path fill="#555" d="M100.28 133.59a6.53 6.53 0 0 0 1.88.14l7.72-.54a5.77 5.77 0 0 0 4-1.89 4.92 4.92 0 0 0 1.23-4l-.14-1.13a6.13 6.13 0 0 0-6.59-5l-7.73.55a5.8 5.8 0 0 0-4 1.88 4.93 4.93 0 0 0-1.23 4l.14 1.14a6 6 0 0 0 4.72 4.85zm9.44-10a3.38 3.38 0 0 1 2.69 2.78l.15 1.14a2.79 2.79 0 0 1-.71 2.27 3.28 3.28 0 0 1-2.26 1.07l-7.72.55a3.51 3.51 0 0 1-3.78-2.87L98 127.4a2.8 2.8 0 0 1 .7-2.26 3.33 3.33 0 0 1 2.27-1.08l7.72-.54a3.51 3.51 0 0 1 1.03.08v-.01z"/>
            <path fill="#DEDEDE" d="M91.18 153.16a4.87 4.87 0 0 0 5.5 3.55l7.16-1.07a4.12 4.12 0 0 0 3.64-4.9l-.25-1.13a4.86 4.86 0 0 0-5.5-3.54l-7.16 1.06a4.12 4.12 0 0 0-3.64 4.9l.25 1.13z"/>
            <path fill="#555" d="M94.56 157.77a6.48 6.48 0 0 0 2.37.09l7.16-1.07a5.65 5.65 0 0 0 3.77-2.18 5 5 0 0 0 .87-4.06l-.25-1.12a5.71 5.71 0 0 0-2.54-3.55 6.49 6.49 0 0 0-4.46-1L94.32 146a5.69 5.69 0 0 0-3.77 2.18 4.94 4.94 0 0 0-.86 4.06l.24 1.13a6 6 0 0 0 4.63 4.4zm8.79-10.5a3.55 3.55 0 0 1 1.19.5 3.26 3.26 0 0 1 1.45 2l.25 1.12a2.83 2.83 0 0 1-.5 2.32 3.2 3.2 0 0 1-2.15 1.25l-7.16 1.07a3.56 3.56 0 0 1-4-2.58l-.25-1.13a2.83 2.83 0 0 1 .5-2.32 3.26 3.26 0 0 1 2.15-1.25l7.16-1.06a3.71 3.71 0 0 1 1.36.08z"/>
            <path fill="#C0C1C2" d="M71.44 193.75l-45.27-10.24-5.41 24.17 45.27 10.23z"/>
            <path fill="#555" d="M19.26 208.53L67 219.32l5.91-26.42-47.73-10.8-5.92 26.43zm45.78 8l-42.78-9.67 4.9-21.91 42.78 9.68-4.9 21.9z"/>
            <path fill="#555" d="M60.22 198.47a2.66 2.66 0 1 0 3.11-1.76 2.53 2.53 0 0 0-3.11 1.76z"/>
        </g>
        <g fill-rule="nonzero">
            <path fill="#A6A6A6" d="M174.83 182.43v-26.54S150 155.14 150 124.34h38v58.09h-13.17z"/>
            <path fill="#555" d="M176.19 182.43h-2.73v-25.3a28.34 28.34 0 0 1-11.77-4.33c-5.94-3.86-13-11.94-13-28.46h2.73c0 12.28 4 21.09 11.78 26.18a25.26 25.26 0 0 0 11.69 4h1.32l-.02 27.91z"/>
            <path fill="#A6A6A6" d="M156.26 75.51a5 5 0 0 1-6.21 3.4l-11.4-3.7a5 5 0 0 1-3.4-6.21l.38-1.29a5 5 0 0 1 6.21-3.39l11.4 3.68a5 5 0 0 1 3.4 6.22l-.38 1.29z"/>
            <path fill="#555" d="M151.47 80.47a6.24 6.24 0 0 1-1.81-.26l-11.38-3.69a6.37 6.37 0 0 1-4.3-7.9l.37-1.28a6.38 6.38 0 0 1 7.88-4.34l11.38 3.69a6.39 6.39 0 0 1 4.31 7.9l-.38 1.28a6.37 6.37 0 0 1-6.1 4.58l.03.02zm-1-2.87a3.64 3.64 0 0 0 4.5-2.47l.38-1.29a3.65 3.65 0 0 0-2.47-4.52l-11.38-3.69a3.65 3.65 0 0 0-4.5 2.48l-.38 1.28A3.65 3.65 0 0 0 139 73.9l11.47 3.7z"/>
            <path fill="#FFF" d="M147.36 29.41a8.29 8.29 0 0 1 8.29-8.29h39a8.3 8.3 0 0 1 8.3 8.29v96.17a8.3 8.3 0 0 1-8.3 8.29h-39a8.29 8.29 0 0 1-8.29-8.29V29.41z"/>
            <path fill="#555" d="M194.67 135.23h-39a9.67 9.67 0 0 1-9.66-9.65V29.41a9.68 9.68 0 0 1 9.66-9.66h39a9.67 9.67 0 0 1 9.66 9.66v96.17a9.66 9.66 0 0 1-9.66 9.65zm-39-112.75a6.94 6.94 0 0 0-6.93 6.93v96.17a6.94 6.94 0 0 0 6.93 6.93h39a6.94 6.94 0 0 0 6.94-6.93V29.41a6.94 6.94 0 0 0-6.94-6.93h-39z"/>
            <path fill="#DADBDC" d="M151.2 34.02h47.93v86.64H151.2z"/>
            <path fill="#555" d="M200 121.57h-49.71V33.11H200v88.46zm-47.92-1.82h46.11V34.93h-46.08l-.03 84.82zM176 24.92a.88.88 0 1 1-1.76-.02.88.88 0 0 1 1.76.02zM179.85 28.57a.69.69 0 0 1-.69.69h-8a.69.69 0 0 1-.69-.69.69.69 0 0 1 .69-.7h8a.69.69 0 0 1 .69.7zM175.16 132.3a4.83 4.83 0 1 1 4.83-4.82 4.82 4.82 0 0 1-4.83 4.82zm0-7.83a3 3 0 1 0 0 6 3 3 0 0 0 0-6z"/>
            <path fill="#FFF" d="M151.2 47.11l47.93 12.9v-6.45L151.2 40.37zM151.2 48.95l47.93 13.83v2.77L151.2 51.44zM151.2 95.93l47.93 12.9v-3.68L151.2 91.96zM151.2 97.77l47.93 13.83v1.85l-47.93-14.1z"/>
            <path fill="#555" d="M200 121.57h-49.71V33.11H200v88.46zm-47.92-1.82h46.11V34.93h-46.08l-.03 84.82z"/>
            <path fill="#A6A6A6" d="M214.39 182.43v-75.62l-8.76-23.74h-22.29s-2 11.72 11.52 11.72l5 14.69s-24.75 7.84-16.64 37.39v35.56h31.17z"/>
            <path fill="#555" d="M214.39 183.79a1.36 1.36 0 0 1-1.36-1.36v-75.38l-8.35-22.61H184.6a9.16 9.16 0 0 0 1.89 6c1.7 2 4.51 3 8.37 3h1l5.77 16.94-1.33.42a27.93 27.93 0 0 0-10.84 7.32c-6.47 7.13-8.11 16.69-4.89 28.41a1.363 1.363 0 1 1-2.63.72c-4.36-15.86.63-25.64 5.58-31a31.09 31.09 0 0 1 10.65-7.5L193.9 96.2c-4.22-.18-7.41-1.51-9.48-4-3.29-3.89-2.44-9.1-2.4-9.32l.19-1.13h24.39l9.17 24.85v75.87a1.36 1.36 0 0 1-1.38 1.32z"/>
            <path fill="#A6A6A6" d="M158.84 105.24a5 5 0 0 1-6.33 3.17l-8.87-2.95a5 5 0 0 1-3.17-6.34l.42-1.26a5 5 0 0 1 6.34-3.17l8.87 3a5 5 0 0 1 3.17 6.33l-.43 1.22z"/>
            <path fill="#555" d="M154.09 110a6.13 6.13 0 0 1-2-.33l-8.87-2.95a6.38 6.38 0 0 1-4-8.06l.42-1.27a6.38 6.38 0 0 1 8.06-4l8.87 3a6.38 6.38 0 0 1 4 8.06l-.42 1.26a6.38 6.38 0 0 1-6.06 4.29zm-8.44-14.24a3.65 3.65 0 0 0-3.46 2.5l-.42 1.26a3.65 3.65 0 0 0 .19 2.79 3.61 3.61 0 0 0 2.11 1.82l8.87 3a3.65 3.65 0 0 0 4.61-2.31l.42-1.27a3.65 3.65 0 0 0-2.3-4.61l-8.87-3a3.55 3.55 0 0 0-1.15-.15v-.03z"/>
            <path fill="#A6A6A6" d="M157.87 90.77a5 5 0 0 1-6.33 3.18l-7.92-2.63a5 5 0 0 1-3.18-6.33l.42-1.27a5 5 0 0 1 6.33-3.18l7.92 2.63a5 5 0 0 1 3.18 6.33l-.42 1.27z"/>
            <path fill="#555" d="M153.11 95.57a6.4 6.4 0 0 1-2-.33l-7.92-2.63a6.36 6.36 0 0 1-4-8l.42-1.27a6.39 6.39 0 0 1 8.05-4l7.92 2.63a6.38 6.38 0 0 1 4.05 8.05l-.42 1.27a6.4 6.4 0 0 1-6.1 4.28zm-7.49-13.92a3.64 3.64 0 0 0-3.46 2.5l-.42 1.27a3.59 3.59 0 0 0 .2 2.78 3.63 3.63 0 0 0 2.11 1.83l7.92 2.62a3.64 3.64 0 0 0 4.61-2.31l.42-1.27a3.63 3.63 0 0 0-2.31-4.6l-7.93-2.63a3.45 3.45 0 0 0-1.14-.19z"/>
            <path fill="#A6A6A6" d="M158 120.39a5 5 0 0 1-6.57 2.64L144.2 120a5 5 0 0 1-2.64-6.57l.52-1.23a5 5 0 0 1 6.58-2.64l7.21 3.07a5 5 0 0 1 2.64 6.58l-.51 1.18z"/>
            <path fill="#555" d="M153.37 124.79a6.27 6.27 0 0 1-2.49-.51l-7.21-3.08a6.35 6.35 0 0 1-3.36-8.36l.52-1.23a6.37 6.37 0 0 1 8.36-3.36l7.22 3.08a6.36 6.36 0 0 1 3.35 8.36l-.52 1.23a6.37 6.37 0 0 1-5.87 3.87zm-6.68-14.32a3.57 3.57 0 0 0-1.36.26 3.62 3.62 0 0 0-2 2l-.53 1.23a3.63 3.63 0 0 0 1.93 4.78l7.21 3.08a3.64 3.64 0 0 0 4.78-1.92l.53-1.23a3.64 3.64 0 0 0-1.92-4.78l-7.22-3.08a3.59 3.59 0 0 0-1.42-.34z"/>
            <path fill="#AEAFB0" d="M169 172.08h49.61v35.47H169z"/>
            <path fill="#555" d="M220 208.91h-52.36v-38.2H220v38.2zm-49.6-2.72h46.88v-32.75h-46.91l.03 32.75z"/>
            <path fill="#555" d="M179.59 180.4a2.83 2.83 0 1 1-5.66.02 2.83 2.83 0 0 1 5.66-.02z"/>
        </g>
        <path fill="#A3A2A2" fill-rule="nonzero" d="M16.23 207.55h224.72"/>
        <path fill="#555" fill-rule="nonzero" d="M241 208.84H16.23a1.29 1.29 0 0 1 0-2.58H241a1.29 1.29 0 0 1 0 2.58zM243.7 130.75a1.29 1.29 0 0 1-1.29-1.29V123a1.3 1.3 0 0 1 2.59 0v6.47a1.29 1.29 0 0 1-1.3 1.28zM249.16 132.66a1.3 1.3 0 0 1-.91-2.21l4.57-4.57a1.294 1.294 0 0 1 1.83 1.83l-4.57 4.57a1.31 1.31 0 0 1-.92.38zM258.25 137.87h-6.46a1.3 1.3 0 1 1 0-2.59h6.46a1.3 1.3 0 1 1 0 2.59zM254.42 148a1.29 1.29 0 0 1-.91-.38l-4.57-4.62a1.29 1.29 0 0 1 1.82-1.83l4.58 4.57a1.3 1.3 0 0 1 0 1.83 1.33 1.33 0 0 1-.92.43zM244.67 152.42a1.29 1.29 0 0 1-1.29-1.29v-6.47a1.3 1.3 0 0 1 2.59 0v6.47a1.3 1.3 0 0 1-1.3 1.29zM234.53 148.66a1.29 1.29 0 0 1-.91-2.2l4.57-4.58a1.294 1.294 0 0 1 1.83 1.83l-4.57 4.58a1.32 1.32 0 0 1-.92.37zM236.59 138.84h-6.47a1.3 1.3 0 0 1 0-2.59h6.47a1.3 1.3 0 0 1 0 2.59zM238.42 133.35a1.33 1.33 0 0 1-.92-.38l-4.57-4.58a1.29 1.29 0 1 1 1.83-1.82l4.57 4.57a1.3 1.3 0 0 1-.91 2.21zM210.78 11.49a1.67 1.67 0 0 1-1.17-2.84l5.86-5.86a1.662 1.662 0 0 1 2.35 2.35L212 11a1.69 1.69 0 0 1-1.22.49zM217.53 31.13a1.65 1.65 0 0 1-1.18-.49l-5.86-5.86a1.66 1.66 0 0 1 2.34-2.35l5.87 5.87a1.65 1.65 0 0 1 0 2.34 1.63 1.63 0 0 1-1.17.49zM197 12.37a1.67 1.67 0 0 1-1.17-.49L190 6a1.66 1.66 0 1 1 2.34-2.35l5.86 5.86a1.67 1.67 0 0 1-1.2 2.86zM54.2 26.8a1.29 1.29 0 0 1-.87-2.25l3.55-3.25a1.3 1.3 0 0 1 1.75 1.91l-3.56 3.25a1.28 1.28 0 0 1-.87.34zM58.29 37.69a1.26 1.26 0 0 1-.87-.34l-3.56-3.25a1.292 1.292 0 0 1 1.74-1.91l3.56 3.25a1.3 1.3 0 0 1 .08 1.83 1.27 1.27 0 0 1-.95.42zM42.82 38.18a1.3 1.3 0 0 1-.88-2.25l3.56-3.25a1.3 1.3 0 0 1 1.75 1.91l-3.56 3.25a1.28 1.28 0 0 1-.87.34zM45.84 27.29A1.32 1.32 0 0 1 45 27l-3.56-3.26a1.292 1.292 0 1 1 1.75-1.9L46.71 25a1.3 1.3 0 0 1-.87 2.25v.04zM79 113.49a1.31 1.31 0 0 1-1-.42 1.28 1.28 0 0 1 .09-1.82l3.54-3.25a1.3 1.3 0 0 1 1.75 1.91l-3.56 3.25a1.28 1.28 0 0 1-.82.33zM83 124.39a1.31 1.31 0 0 1-.87-.34l-3.56-3.25a1.3 1.3 0 0 1 1.75-1.91l3.55 3.25A1.29 1.29 0 0 1 84 124a1.27 1.27 0 0 1-1 .39zM70.59 114a1.28 1.28 0 0 1-.87-.34l-3.56-3.25a1.3 1.3 0 0 1 1.75-1.91l3.55 3.25a1.29 1.29 0 0 1-.87 2.25z"/>
        <path fill="#A3A2A2" fill-rule="nonzero" d="M1.68 207.55h8.08"/>
        <path fill="#555" fill-rule="nonzero" d="M9.76 208.84H1.68a1.29 1.29 0 0 1 0-2.58h8.08a1.29 1.29 0 0 1 0 2.58z"/>
        <path fill="#A3A2A2" fill-rule="nonzero" d="M245.48 207.55h8.73"/>
        <path fill="#555" fill-rule="nonzero" d="M254.21 208.84h-8.73a1.29 1.29 0 0 1 0-2.58h8.73a1.29 1.29 0 0 1 0 2.58z"/>
        <path fill="#A3A2A2" fill-rule="nonzero" d="M260.68 207.55h2.26"/>
        <path fill="#555" fill-rule="nonzero" d="M262.94 208.84h-2.26a1.29 1.29 0 0 1 0-2.58h2.26a1.29 1.29 0 0 1 0 2.58z"/>
        <path fill="#707070" fill-rule="nonzero" stroke="#555" stroke-linecap="round" stroke-linejoin="round" stroke-width="2" d="M179.65 58.61h.98a3.61 3.61 0 0 1 3.61 3.61v38.99a3.61 3.61 0 0 1-3.61 3.61h-.98a3.61 3.61 0 0 1-3.61-3.61V62.22a3.61 3.61 0 0 1 3.61-3.61z"/>
        <g transform="translate(97 61)">
            <path fill="#A6A6A6" fill-rule="nonzero" stroke="#555" stroke-linecap="round" stroke-linejoin="round" stroke-width="2" d="M.424 9.752L92.802.108l4.093 39.207L4.517 48.96z"/>
            <path fill="#FFF" fill-rule="nonzero" stroke="#555" stroke-linecap="round" stroke-linejoin="round" stroke-width="2" d="M89 28.16a6.69 6.69 0 0 1 1.55 0l-1.72-16.44a6.26 6.26 0 0 1-1.51.34 6.69 6.69 0 0 1-7.36-6 6.83 6.83 0 0 1 .22-2.52L14 10.52a6.57 6.57 0 0 1 .74 2.42 6.71 6.71 0 0 1-8.08 7.24l1.75 16.74a6.63 6.63 0 0 1 2-.56 6.69 6.69 0 0 1 7 9l66.65-7a6.57 6.57 0 0 1-1-2.93A6.71 6.71 0 0 1 89 28.16z"/>
            <circle cx="47.52" cy="24.87" r="10.27" fill="#A6A6A6" fill-rule="nonzero" stroke="#555" stroke-linecap="round" stroke-linejoin="round" stroke-width="2"/>
            <text fill="#FFF" font-family="MyriadPro-Regular, Myriad Pro" font-size="14.76" transform="rotate(-5.96 47.985 25.784)">
                <tspan x="43.985" y="29.284">$</tspan>
            </text>
        </g>
        <path stroke="#555" stroke-linecap="round" stroke-linejoin="round" stroke-width="2" d="M78 113.07c.05-.831.144-1.659.28-2.48"/>
        <path stroke="#555" stroke-dasharray="4.38" stroke-linecap="round" stroke-linejoin="round" stroke-width="2" d="M79.26 106.33c1.82-6 6.25-13.87 16.95-14.89"/>
        <path stroke="#555" stroke-linecap="round" stroke-linejoin="round" stroke-width="2" d="M98.41 91.33c.8 0 1.63 0 2.5.09"/>
    </g>
</svg>
